<?xml version="1.0" encoding="UTF-8"?>
<svg width="200px" height="75px" viewBox="0 0 474 159" version="1.1" xmlns="http://www.w3.org/2000/svg" xmlns:xlink="http://www.w3.org/1999/xlink">
    <title>SheaMoisture_logo(web)_darkgray</title>
    <g id="Page-1" stroke="none" stroke-width="1" fill="none" fill-rule="evenodd">
        <g id="SheaMoisture_logo(web)_darkgray" fill="#444444" fill-rule="nonzero">
            <path d="M87.43,138.37 C84.0182337,139.604293 80.526944,140.606577 76.98,141.37 C74.23,142.02 72.14,142.02 69.66,142.37 C69.4,142.63 69.4,142.89 68.74,142.89 L46.92,142.89 C46.39,142.89 46.66,142.24 46,142.24 C45.34,142.24 45.61,142.89 45.09,142.89 C44.57,142.89 44.57,142.24 43.91,142.24 C43.25,142.24 43,143.16 43,143.42 C44.7,143.68 46.52,144.99 49,143.94 C49.26,144.33 49.26,144.6 49.78,144.6 L68.21,144.33 C68.73,144.33 71.74,143.42 72.52,143.33 C76.97,142.68 83.52,141.24 88.08,138.89 C88.73,138.63 89.91,138.76 90.56,138.37 C92.26,137.45 94.22,135.62 95.56,135.1 C96.26087,134.878288 96.9323987,134.572742 97.56,134.19 L97.16,133.53 C93.71,135.23 90.7,137.06 87.43,138.37 Z" id="Path"></path>
            <path d="M27.31,139.28 C26.92,139.16 26.79,138.76 26.31,138.63 C25.83,138.5 24.87,138.63 24.61,138.37 C24.35,138.11 23.83,137.45 23.69,137.45 C22.9151728,137.298704 22.129161,137.211741 21.34,137.19 C19.64,136.54 17.42,134.7 16.9,134.7 C16.38,134.7 17.03,134.97 16.37,134.97 C15.71,134.97 13.11,132.75 11.67,131.31 C11.28,131.05 11.15,130.13 11.02,130 C10.2478463,129.855248 9.52718613,129.510434 8.93,129 C8.01,128.08 7.49,126.64 6.57,127 C6.05,125.56 5.66,123.73 5.14,122.68 C4.09,120.99 3.31,119.29 4.35,116.81 C3.97406212,116.830218 3.60828752,116.683908 3.35,116.41 C2.92453414,117.137393 2.3441274,117.762184 1.65,118.24 L1.39,119.24 L2.56,119.24 C1.78,121.72 3.35,123.54 4.39,125.77 C5.13502215,127.260669 6.10655017,128.62688 7.27,129.82 C7.9097087,130.147041 8.5794782,130.4116 9.27,130.61 C9.92,131.13 9.92,132.44 10.27,132.7 C10.62,132.96 11.32,132.83 11.32,132.96 C11.58,133.22 11.84,134.14 12.23,134.27 C12.62,134.4 13.41,134.27 13.8,134.4 C14.19,134.53 13.8,135.18 13.8,135.4 C15.5,135.53 19.03,137.76 19.55,137.76 C20.07,137.76 19.81,137.23 20.47,137.23 C21.13,137.23 21.47,139.32 22.04,139.32 C22.61,139.32 21.77,138.67 22.43,138.67 C23.09,138.67 22.43,139.19 22.43,139.19 C23.43,139.19 25.04,140.11 25.56,140.11 C26.08,140.11 26.22,139.85 26.74,139.85 C27.26,139.85 27.65,141.15 29.35,140.85 C29.49,140.98 28.96,141.64 29.62,141.64 C30.28,141.64 30.01,141.25 30.53,141.25 C31.4498526,141.329143 32.3645963,141.459344 33.27,141.64 C33.4,141.9 33.4,142.81 33.93,142.81 C34.46,142.81 37.59,142.95 39.03,142.95 C39.7039081,143.03963 40.3717899,143.169867 41.03,143.34 C41.6309239,143.272745 42.1878879,142.992489 42.6,142.55 C38.42,141.38 34.24,139.81 30.19,139.42 C29.14,139.28 27.84,139.55 27.31,139.28 Z" id="Path"></path>
            <path d="M104,85.83 C103.821464,86.5961081 104.136117,87.3926976 104.79,87.83 C104.376289,87.2329983 104.10594,86.5485711 104,85.83 Z" id="Path"></path>
            <path d="M111.22,86.74 C111.09,87 110.96,87.92 110.7,88.18 C110.57,87.53 111.35,86.36 111.22,85.83 C110.796455,83.7852727 109.999826,81.8360736 108.87,80.08 C106.999139,77.2861179 105.420822,74.3070865 104.16,71.19 C104.03,71.06 103.51,71.06 103.25,71.06 C102.59,69.88 101.16,68.71 100.63,67.79 C99.72,66.1 97.5,64.26 96.06,62.44 C95.4,61.65 94.88,60.22 94.23,59.69 C95.4,57.86 97.5,55.77 97.76,55.12 L98.02,53.68 C96.58,53.68 95.4,53.42 94.75,53.42 C92.7490182,53.4959745 90.7452606,53.4492202 88.75,53.28 C88.49,52.76 87.7,52.37 87.44,51.72 C86.53,50.15 86.01,48.06 85.35,47.01 C81.17,40.74 76.86,32.64 79.35,24.4 C79.35,24.01 78.96,24.27 79.22,23.49 C79.4700344,22.7848386 79.8058915,22.1131244 80.22,21.49 C81.01,19.79 83.22,18.09 84.8,16.78 C85.19,16.39 85.45,15.61 85.71,15.48 C87.5737298,14.2954351 89.5459524,13.2909075 91.6,12.48 C93.3948896,12.0092312 95.229289,11.7046138 97.08,11.57 C97.74,11.57 97.74,11.04 99.44,12.74 C99.57,15.62 99.04,18.62 99.18,21.11 C99.18,21.63 99.83,22.11 100.09,22.41 C100.799533,22.6761007 101.552255,22.8083357 102.31,22.8 C105.58,22.8 108.71,19.01 109.76,14.7 C110.269031,13.3153391 110.314652,11.802823 109.89,10.39 C110.036279,9.65793562 110.12654,8.9157856 110.16,8.17 C109.897629,7.82106383 109.71655,7.41790648 109.63,6.99 C109.825607,6.11463779 109.734451,5.199571 109.37,4.38 C107.37,1.11 106.1,0.72 101.92,0.72 C98.26,0.72 100.35,0.72 93.82,2.29 C91.2,2.94 88.33,4.9 85.71,6.73 C84.93,7.25 84.15,7.64 83.49,8.17 C81.906169,9.35412862 80.4212735,10.6651174 79.05,12.09 C78.6438816,12.3321319 78.2016188,12.5076866 77.74,12.61 C71.21,19.14 70.42,23.98 69.38,28.16 C68.46,31.69 67.38,34.3 68.46,38.62 C68.72,39.4 69.12,40.18 69.25,40.62 C70.16,47.41 74.34,52.25 77.09,56.43 C72.64,57.61 68.46,57.43 64.28,58.79 C61.14,59.79 57.48,61.66 54.22,62.71 C52.9081576,63.209994 51.6404097,63.8187806 50.43,64.53 C49.64,64.8 48.34,65.06 47.55,65.32 C46.24,65.71 44.41,67.15 43.11,67.8 C40.49,69.24 37.49,70.02 35.53,71.2 C34.3128926,71.963971 33.1347543,72.788334 32,73.67 C31.61,73.93 30.69,73.93 30.3,74.2 C27.43,75.9 23.63,78.9 21.67,80.08 C20.4703389,81.1247874 19.2115948,82.0997298 17.9,83 C12.81,86.78 5.9,93.84 2.61,99.2 C2.48,99.46 2.75,99.72 2.61,99.98 C1.56761647,100.573469 0.812704191,101.566775 0.52,102.73 C0.420351184,103.450516 0.557205003,104.183912 0.91,104.82 C0.975722059,103.757604 1.15337242,102.705109 1.44,101.68 C2.44,101.55 2.35,102.08 3,101.16 C4.44,102.6 1.57,104.56 3.13,105.47 C2.51013814,105.953164 2.01897466,106.581716 1.7,107.3 C1.17,109.4 0.78,114.36 1.57,115.8 C1.92059649,115.611127 2.25505815,115.393727 2.57,115.15 C2.57,113.71 3.57,109.79 2.44,109.15 C4.27,105.36 5.84,101.44 7.67,98.44 C8.73468925,97.1579856 9.86977114,95.9361033 11.07,94.78 C12.07,94.51 13.94,92.03 14.86,91.38 C14.9845127,91.0234683 15.1596375,90.6866898 15.38,90.38 C17.73,88.82 19.56,86.98 21.38,85.94 C22.3,85.42 23.6,85.03 24.65,84.37 C25.17,83.98 25.56,83.19 25.82,83.07 C31.18,80.19 35.11,77.31 37.98,75.74 C42.182597,73.3054307 46.5307864,71.131336 51,69.23 C51.2713347,68.8658105 51.5796449,68.5306907 51.92,68.23 C52.7565014,68.1729556 53.5863652,68.0424529 54.4,67.84 C55.83,67.19 57.93,65.75 59.23,65.36 C59.89,65.1 60.67,65.36 61.23,65.1 C63.59,63.92 66.33,63.27 67.9,62.49 C68.16,62.22 68.55,61.7 68.81,61.49 C69.6046985,61.190738 70.451556,61.0546966 71.3,61.09 C71.56,60.84 71.95,60.57 72.21,60.32 C74.96,59.92 75.35,58.74 77.31,58.74 C80.31,58.74 78.88,60.05 82.93,62.66 C83.4203369,63.1997103 83.8159099,63.818427 84.1,64.49 C81.62,66.2 76.53,70.11 74.3,71.29 C73.13,71.94 71.69,73.29 70.9,73.77 C69.6,74.56 68.16,74.95 66.9,75.77 C66.38,76.17 65.9,76.82 65.47,77.08 C64.16,77.48 61.94,78.13 60.63,78.65 C54.75,81.27 46.91,84.65 42.63,86.1 C40.28,86.88 37.63,89.5 35.71,91.72 C35.1605614,91.8918851 34.5791855,91.9363432 34.01,91.85 L33.62,93.55 C34.14,94.33 34.92,95.38 35.44,95.38 C35.96,95.38 35.71,94.73 36.36,94.73 C37.5452703,95.5700792 38.9189337,96.1058079 40.36,96.29 C43.36,96.29 45.98,95.11 48.73,93.29 L49.12,91.59 C47.42,90.15 45.07,91.06 43.5,88.98 C44.41,88.06 45.72,86.75 46.24,86.75 C46.76,86.75 46.11,87.14 46.63,87.14 C47.15,87.14 49.9,85.14 51.34,84.53 C52,84.27 53.34,83.88 54.09,83.62 C54.35,83.48 55.09,82.05 55.65,82.05 C56.21,82.05 55.53,82.71 56.04,82.71 C56.55,82.71 57.22,81.79 57.61,81.65 C60.36,80.35 64.02,79.17 66.24,78.13 C66.89,77.87 67.15,77.22 67.29,77.22 C69.51,76.82 72.29,74.99 75.39,73.03 C76.57,72.38 78.13,71.73 79.39,71.03 C79.65,70.9 79.65,70.51 79.91,70.38 C81.74,69.72 83.96,68.28 85.14,67.89 C86.06,67.5 86.06,66.72 86.97,66.72 C87.88,66.72 87.36,67.11 88.02,67.72 C88.28,68.11 88.93,67.98 89.19,68.24 C91.02,69.94 92.98,71.9 94.19,73.24 C94.2732095,72.9984886 94.4060591,72.7770726 94.58,72.59 C95.0709511,73.9473088 95.9466134,75.1322329 97.1,76 C97.24,75.74 97.24,75.47 97.5,75.21 C97.5924793,75.6859974 97.4426003,76.1768513 97.1,76.52 C97.5,76.78 98.02,76.91 98.02,77.17 C98.15,77.96 98.8,78.48 98.94,79 C98.94,78.09 99.06,78 99.85,77.17 C99.85,77.83 100.24,78.35 100.5,78.35 C100.63,78.09 100.63,77.83 100.9,77.57 C101.39093,78.3988622 101.486269,79.4035934 101.16,80.31 C101.42,80.96 102.16,81.23 102.33,81.62 C102.59,82.27 102.33,83.45 102.59,83.97 C102.98,84.76 103.25,85.53 103.59,85.67 C103.59,85.01 103.07,83.97 103.2,83.45 C103.46,82.66 103.2,83.05 103.59,82.8 C104.24,83.71 105.16,83.8 105.59,84.49 C106.760889,87.3370898 107.55104,90.3262138 107.94,93.38 C108.07,93.64 107.68,93.77 107.55,93.91 C107.572817,95.4037716 107.747042,96.8913801 108.07,98.35 C108.47,100.56 109.51,102.35 109.38,103.57 C109.25,104.79 108.6,106.84 109.12,108.15 C109.38,108.54 109.9,108.93 109.9,109.15 C109.769955,110.717307 109.769955,112.292693 109.9,113.86 C109.843735,114.696589 109.713221,115.526521 109.51,116.34 C109.9,115.43 111.08,114.25 111.21,113.6 C111.34,112.95 110.56,111.77 110.69,110.98 C110.82,110.19 111.34,110.72 111.6,110.72 L111.99,109.29 C111.73,109.29 111.34,109.42 111.21,109.15 L111.47,107.97 C111.991193,107.686444 112.439588,107.285969 112.78,106.8 C112.988052,105.209274 113.322442,103.63764 113.78,102.1 C114.05,101.84 114.44,102.23 114.7,101.44 C115.22,99.09 113.13,90.59 112.61,88.77 C112.39,88.05 111.74,86.87 111.22,86.74 Z M96.84,75.11 C96.84,74.85 96.45,74.32 96.32,73.81 C96.9583507,73.8496881 97.4657002,74.3613371 97.5,75 C97.2822621,75.0491431 97.0619066,75.085869 96.84,75.11 L96.84,75.11 Z M98.67,74.85 C98.8,74.07 98.15,73.15 98.02,72.63 L99.2,72.63 C99.3386157,73.3906521 99.5564693,74.1347059 99.85,74.85 L98.67,74.85 Z M100.67,76.94 C100.28,76.68 99.89,75.63 99.5,75.37 C100.0448,75.1928084 100.640064,75.4118987 100.94,75.9 L100.67,76.94 Z M102.76,76.94 C102.361473,76.5648137 102.127764,76.0470584 102.11,75.5 L103.16,75.5 L102.76,76.94 Z M111.13,98.24 C111,98.51 110.61,98.64 110.22,98.9 C110.711118,100.373185 110.800863,101.950619 110.48,103.47 C110.302816,102.883771 109.987282,102.348735 109.56,101.91 C109.56,101.64 109.95,100.99 109.95,100.73 C109.17,99.73 109.43,98.73 108.77,97.33 C109.3,97.46 110.35,97.46 110.35,98.51 C110.61,98.11 110.35,98.64 110.48,97.85 C110.61,97.06 110.22,96.41 110.09,95.36 C109.96,94.31 110.35,92.76 110.61,91.84 C110.74,91.58 110.22,91.58 110.35,90.92 L110.74,89.62 C111.215644,90.9887738 111.609669,92.3845588 111.92,93.8 C112,94.72 110.18,97.46 111.09,98.24 L111.13,98.24 Z" id="Shape"></path>
            <path d="M106.78,121.9 C106.028163,124.213556 104.617074,126.257202 102.72,127.78 C102.171642,128.329418 101.560813,128.812711 100.9,129.22 C100.924118,129.589823 100.829525,129.957686 100.63,130.27 L100.11,130.66 L99.59,132.66 C101.751177,130.827947 103.757947,128.821177 105.59,126.66 C107.052261,124.59981 108.404162,122.463473 109.64,120.26 C109.77,119.61 109.25,118.56 109.12,117.65 C108.73,119.16 108.73,121.77 106.78,121.9 Z" id="Path"></path>
            <path d="M143.86,106.35 C140.86,99.68 146.74,91.58 146.74,84.65 C146.87,83.87 146.21,83.21 146.74,82.17 C147,81.65 146.48,80.6 145.69,80.73 C144.125171,81.2257372 142.695085,82.0742093 141.51,83.21 C141.25,83.61 140.51,84.21 140.2,83.61 L138.64,84.61 C136.15,84.09 135.37,88.67 133.28,87.36 C132.1,86.7 133.8,84.09 133.8,82.65 C133.877954,81.6249075 134.096675,80.6154288 134.45,79.65 C135.37,74.42 136.67,68.93 137.2,63.44 L137.85,62.52 C137.46,59.13 141.25,56.38 140.85,52.85 C140.812603,52.4552114 140.856854,52.0569504 140.98,51.68 C141.5,49.2 138.49,50.5 137.06,51.16 C129.61,54.42 131.7,62.16 129.48,67.88 L128.17,69.19 C127.12,71.8 119.41,82.79 117.71,88.41 L117.06,91.54 C121.9,82.13 124.51,80.95 125.43,79.65 C125.82,79.12 127.12,78.47 127.12,79.65 C127.25,83.83 125.56,87.75 125.3,91.93 C124.948255,93.4805174 124.684501,95.0496906 124.51,96.63 C124.38,99.9 120.59,104.22 122.94,106.31 C124.94,108.14 128.69,104.61 130.13,102.38 C132.566723,98.8756413 134.53977,95.07072 136,91.06 C136.13,90.53 135,90.8 134.69,90.27 L135,90 C136,90.65 136.83,89.35 137.74,90.26 C139.05,91.44 137.35,94.18 137.48,96.14 C137.48,97.58 136.83,98.63 136.69,99.93 C136.56,102.81 135.26,106.73 136.3,109.48 C137.09,111.48 138.78,112.35 140.62,113.66 C142.626689,115.223494 145.12953,116.011623 147.67,115.88 C148.98,115.75 150.29,116.01 151.46,114.57 C151.72,114.05 152.38,114.97 152.77,114.7 C154.77,113.7 160.22,110.92 158.26,110.92 C152.23,111.18 146.35,112 143.86,106.35 Z" id="Path"></path>
            <path d="M172.87,93.8 C168.95,92.89 168.16,102.3 163.59,102.42 C161.89,102.42 160.06,102.04 159.54,100.34 C159.15,98.9 158.36,96.54 159.8,95.34 C165.42,90.9 172.74,85.02 172.35,77.18 C172.22,75.18 169.73,73.91 167.64,75.18 C163.733388,77.9173213 160.217752,81.1739102 157.19,84.86 C154.31,88.39 153.27,89.42 152.09,93.09 C151.7,94.09 152.22,95.44 152.09,96.48 C151.7,100.67 152.61,104.33 154.83,107.07 C156.27,108.9 159.67,107.46 161.89,106.68 C163.691675,105.786043 165.328312,104.592381 166.73,103.15 C169.47,100.86 176.79,94.72 172.87,93.8 Z M161.63,85.44 C162.28,83.87 162.68,81.26 165.16,81.78 L165.55,83.78 C164.64,86.52 164.38,91.23 160.98,91.1 C158.89,91.06 160.85,87.14 161.63,85.44 Z" id="Shape"></path>
            <path d="M203.43,98.9 C202.456581,99.0372394 201.522984,99.3779685 200.69,99.9 C198.99,100.3 196.5,100.43 195.85,98.9 C194.28,95.11 196.63,91.32 196.77,87 C196.9,85.56 199.25,83.34 197.55,83.08 C194.81,82.83 193.37,85.83 191.28,87.53 L191.28,88.45 C189.97,90.66 188.92,93.02 187.35,95.24 C185.26,98.24 183.69,104.24 179.51,103.6 C177.94,103.34 179.12,100.47 179.51,98.6 C180.058722,96.3876962 180.846699,94.2417164 181.86,92.2 C182.65,90.76 184.22,90.62 186.05,90.2 C189.18,89.41 190.75,85.11 191.41,81.97 C191.67,80.8 191.41,78.83 189.71,79.48 C185.857177,81.2290414 182.622565,84.1011536 180.43,87.72 C178.6,90.33 177.55,93.34 176.25,96.34 C175.46,98.34 174.68,100.13 173.76,102.1 C172.871981,103.923591 172.469018,105.945297 172.59,107.97 C172.84,109.42 174.81,109.68 176.25,109.15 C180.82,107.72 183.3,103.66 186.7,100.52 C187.23,100.13 188.14,99.52 188.27,100.13 C188.66,102.35 189.71,105.13 191.67,105.76 C195.85,107.33 199.38,103.66 202.78,101.05 C203.43,100.59 204.34,98.9 203.43,98.9 Z" id="Path"></path>
            <path d="M268.51,22.44 C268.86705,20.6508752 269.577595,18.9510062 270.6,17.44 C271.6,17.83 271.26,18.74 271.13,19.92 C271.13,20.44 269.56,27.24 269.56,27.76 C269.29,30.63 270.34,29.98 270.08,31.94 L269.82,32.34 C269.56,32.6 269.82,33.12 269.82,33.25 C269.408697,33.7045467 269.095512,34.2390025 268.9,34.82 C268.9,35.47 270.21,38.22 270.21,38.82 C270.21,39.42 268.51,41.82 268.51,42.35 C268.51,42.88 268.9,46.26 268.65,48.62 C269.426281,48.4034176 270.252344,48.4491147 271,48.75 C271.26,48.49 271.91,48.1 271.91,47.44 C272.04,47.05 271.52,46.53 271.52,46.01 C271.767432,45.0648657 271.941285,44.1019859 272.04,43.13 C272.04,42.74 271.65,42.22 271.52,41.83 C271.587686,41.3352567 271.718763,40.8512815 271.91,40.39 L271.65,40.39 C271.65,39.73 272.18,39.6 272.04,39.48 C271.9,39.36 271.91,39.48 271.78,39.21 L271.78,38.82 C272.31,38.3 272.83,37.51 273.22,37.12 C273.35,36.33 272.96,35.55 273.35,34.64 C273.254285,31.4858268 273.475393,28.3300105 274.01,25.22 C274.14,24.7 274.8,24.31 274.92,23.66 C275.18,22.23 275.18,20.78 275.44,19.35 C275.57,18.82 276.09,18.43 276.35,17.9 C276.638471,17.0482793 276.591992,16.1186975 276.22,15.3 C276.49,14.77 276.75,14.51 276.75,13.99 C277.044085,12.705402 277.131849,11.3821855 277.01,10.07 C276.619642,9.27406567 275.975934,8.63035831 275.18,8.24 C274.8,7.97 273.88,8.11 273.48,8.11 C272.57,7.97 271.65,7.06 270.48,7.06 C270.48,7.45 269.95,7.97 269.29,8.63 C269.140483,9.07574853 268.966894,9.51305773 268.77,9.94 C268.031979,10.7529242 267.362997,11.625946 266.77,12.55 C266.38,13.33 266.25,14.77 265.86,15.69 C265.47,16.61 264.03,18.43 263.38,19.61 C262.752241,20.9101255 262.054554,22.1753103 261.29,23.4 C261.03,23.66 261.15,24.31 261.03,24.7 C257.36,26.4 257.89,28.49 256.84,31.5 C254.959395,37.5839226 253.476268,43.7836608 252.4,50.06 C252.27,50.97 252.14,51.37 253.18,51.63 C252.92,52.41 251.88,53.63 251.48,54.63 C250.96,56.19 249.79,60.25 249.92,62.46 C250.57,61.81 250.92,61.55 250.83,60.77 C251.48,59.85 252.27,58.77 252.83,57.89 C253.09,57.76 253.09,57.5 253.09,58.02 C252.96,58.8 249.83,66.02 249.3,66.02 L248.78,66.02 C248.65,66.41 249.04,67.19 249.04,67.71 C249.04,68.23 247.47,70.46 246.94,71.51 C246.829387,70.4672262 246.789296,69.4181745 246.82,68.37 C246.56,66.37 247.08,59.37 246.43,56.37 C246.16,55.37 246.69,49.84 246.56,48.01 C246.3,45.26 246.43,40.3 245.64,37.16 C245.25,35.16 241.98,37.16 240.8,35.59 C240.842561,33.6202177 241.01964,31.6556439 241.33,29.71 C241.59,28.79 242.76,27.36 243.42,25.92 C243.854316,24.6917524 244.1593,23.4215431 244.33,22.13 C244.46,20.3 244.59,19.65 243.33,17.82 C243.498508,17.6428738 243.735821,17.5479484 243.98,17.56 C243.945007,16.8193202 243.721257,16.0998801 243.33,15.47 C245.94,11.02 242.15,9.06 239.67,9.47 C238.784771,9.72613198 237.947147,10.1246788 237.19,10.65 C236.19,14.31 236.27,18.75 235.49,22.54 C235.36,23.07 234.7,23.59 234.57,24.24 C233.92,26.46 232.88,33.13 231.83,37.05 C231.57,38.36 230.78,40.84 230.26,42.41 C230,43.19 229.34,44.24 228.95,45.41 C228.56,46.58 228.43,48.55 228.04,49.86 C226.99,52.47 224.9,57.05 223.46,60.86 C222.94,62.29 222.68,64.51 221.9,66.22 C220.85,68.83 219.54,71.45 218.63,73.92 C218.37,74.45 218.5,75.36 218.24,76.02 C217.824917,77.1622888 217.516925,78.3406924 217.32,79.54 C217.19,79.68 216.93,80.2 216.67,80.33 C214.31,87.26 212.22,95.89 209.35,103.72 C208.04,107.51 205.82,112.61 204.12,117.84 C203.34,120.19 202.42,124.11 201.9,126.08 C200.9,129.47 199.15,132.87 199.15,137.58 C199.016993,139.10043 199.016993,140.62957 199.15,142.15 C199.28,142.8 200.07,143.32 200.33,143.85 C201.38,146.33 203.33,147.77 205.33,147.51 C207.03,147.25 209.9,144.37 210.04,143.98 C210.16,142.93 211.04,141.76 211.21,140.45 C211.6,136.4 211.34,134.05 212.65,129.34 C212.65,129.21 212.25,128.69 212.39,128.16 C213.3,125.16 214.47,121.16 215.52,117.97 C215.595024,117.57579 215.549728,117.168127 215.39,116.8 C216.04,115.49 216.44,113.92 217.09,112.35 C217.09,112.09 216.83,111.7 216.96,111.44 C217.74,108.17 219.7,102.81 220.62,97.84 C220.75,97.32 221.53,96.53 221.53,96.14 C222.44353,92.3336103 223.5788,88.5838805 224.93,84.91 C225.45,83.73 225.72,81.12 226.24,79.54 C227.42,76.15 228.98,72.62 229.9,69.35 C230.29,68.44 230.42,66.74 230.9,65.43 C231.846197,63.1634155 232.677257,60.8504663 233.39,58.5 C234.3,55.37 235.61,52.62 236.39,49.5 C236.53,49.5 236.78,49.24 237.05,48.97 C238.28813,49.7405462 239.248033,50.8861245 239.79,52.24 C239.92,52.63 239.53,53.94 240.18,54.59 C241.75,56.59 241.23,58.59 241.62,61.39 C241.88,63.61 241.49,67.01 241.62,69.39 C241.62,70.18 242.54,71.22 242.79,72.01 C242.940528,72.9217674 242.899661,73.8548832 242.67,74.75 C242.67,75.27 243.06,75.66 243.19,76.06 C243.211345,77.4492805 242.945809,78.8280231 242.41,80.11 C242.41,80.37 242.27,80.9 242.41,81.11 C242.766425,82.5680565 243.026983,84.0478897 243.19,85.54 C243.32,86.59 243.06,88.16 243.06,89.46 C243.213747,89.7109292 243.344287,89.9753578 243.45,90.25 C242.27,95.25 243.97,99.14 245.02,102.8 C245.15,103.32 246.33,104.11 246.59,104.63 C247.294641,106.031815 248.219743,107.311427 249.33,108.42 C250.091138,108.186389 250.897738,108.141769 251.68,108.29 C252.6,107.9 252.47,106.98 252.6,106.46 C252.86,105.02 254.69,102.4 254.69,101.89 C254.69,101.38 254.03,99.8 254.17,98.75 C254.43,94.83 254.03,90.64 254.03,87.38 C254.03,87.12 253.77,86.98 253.77,86.38 C253.77,85.98 254.95,80.38 255.35,77.48 C255.61,75.39 256,72 256.35,69.9 C257.13,66.25 257.92,61.54 258.57,57.49 C258.807716,56.2408399 258.851564,54.9625127 258.7,53.7 C259.09,52.26 259.88,50.44 260.27,48.99 C260.595687,46.6300599 261.080119,44.2947638 261.72,42 C262.37,40.44 262.37,38 262.89,35.74 C263.02,35.21 263.81,32.86 264.2,31.94 C264.85,30.24 266.03,28.28 266.81,26.59 C266.928622,26.1124371 267.01878,25.6282516 267.08,25.14 C267.34,24.53 268.38,23.36 268.51,22.44 Z M253.22,55.9 C252.7,56.29 252.31,57.08 251.78,57.08 L251.92,56.08 C252.332651,55.6149527 252.815075,55.216868 253.35,54.9 L253.22,55.9 Z" id="Shape"></path>
            <path d="M277.4,145 C277.27,144.73 276.75,144.61 276.49,144.21 C276.23,143.81 276.49,142.9 276.22,142.38 C275.7,141.07 275.22,139.76 274.53,138.46 L275.05,137.41 C274.654157,136.055812 274.12838,134.743044 273.48,133.49 C273.22,132.49 273.09,131.01 272.83,129.83 C272.537384,129.60143 272.272278,129.33968 272.04,129.05 C271.27162,126.838584 270.702684,124.56284 270.34,122.25 C270.099784,120.826037 270.056043,119.375852 270.21,117.94 C270.21,117.94 270.08,117.94 269.82,117.68 C270.08,116.77 269.82,114.8 268.77,114.15 C268.91039,114.080033 269.041419,113.992681 269.16,113.89 C269.290372,113.374786 269.290372,112.835214 269.16,112.32 L269.42,112.06 C269.493645,111.395367 269.493645,110.724633 269.42,110.06 C269.29,110.06 269.16,109.67 269.03,109.41 C268.884573,108.364012 268.928609,107.300388 269.16,106.27 C269.113818,104.993074 268.943007,103.723712 268.65,102.48 L267.47,102.34 L267.21,105.75 C267.21,106.27 267.86,113.59 267.86,117.51 C267.34,118.81 267.6,120.78 267.73,122.51 C267.73,123.3 267.6,124.6 267.6,125.51 C267.47,125.77 267.21,125.9 267.08,126.17 C267.86,126.29 267.21,127.6 267.6,128.39 C267.73,128.91 268.25,129.3 268.38,130.08 C268.77,131.52 268.12,134.14 268.25,135.97 C268.25,136.75 269.25,139.36 269.56,140.97 C269.95,143.2 270.73,145.8 271.13,148.29 C271.115729,149.381529 271.159123,150.473049 271.26,151.56 C270.193068,153.863208 270.90541,156.59944 272.96,158.09 C273.22,158.09 274.26,157.71 274.66,157.71 C275.06,157.71 275.18,158.09 275.66,157.96 C276.14,157.83 277.1,156.53 277.36,155.74 C277.686323,154.934736 277.95043,154.10564 278.15,153.26 C278.07615,152.482504 277.753514,151.749558 277.23,151.17 C278.02,149.73 278.15,150.12 278.28,149.17 C278.41,148.22 277.88,148.17 277.23,146.82 C277.53,146.47 277.4,145.68 277.4,145 Z" id="Path"></path>
            <path d="M268.38,101.38 L269.03,100.73 C268.77,100.59 268.65,100.07 268.25,99.82 C268.12,99.42 268.65,98.64 268.9,97.98 C269.16,97.72 268.77,96.81 268.77,96.29 L268.77,92.36 C268.704161,92.2172593 268.616438,92.0856744 268.51,91.97 C268.54534,90.950927 268.720305,89.9415182 269.03,88.97 C269.22706,88.0639241 269.22706,87.1260759 269.03,86.22 C268.878497,85.2669603 268.791633,84.3047641 268.77,83.34 C268.9,82.04 269.42,80.6 269.42,79.34 C269.140675,78.1846602 269.009621,76.9984515 269.03,75.81 C269.16,74.63 269.95,73.06 269.69,72.02 C269.56,71.5 268.9,71.76 268.9,71.1 C268.9,70.44 269.56,70.19 269.56,69.79 C269.69,68.79 270.21,67.57 270.21,66.92 C270.09493,65.8215298 269.92135,64.7299792 269.69,63.65 C270.08,62.48 271,61.43 269.95,60.12 C270.220444,59.0990064 270.351631,58.0461403 270.34,56.99 C270.260098,56.0280156 270.307169,55.0596988 270.48,54.11 C269.987566,54.3932849 269.57743,54.7999741 269.29,55.29 C269.29,57.29 268.77,59.29 268.77,61.29 C268.65,61.94 269.29,62.73 269.03,63.51 C268.550367,64.8766761 268.159553,66.2729187 267.86,67.69 C267.919246,68.6368804 268.139044,69.5667966 268.51,70.44 C268.25,71.87 267.98,73.31 267.73,74.62 C267.739551,74.9389328 267.82527,75.2509517 267.98,75.53 C267.98,79.06 267.34,83.64 267.47,87.03 C267.501163,88.388311 267.414169,89.7467596 267.21,91.09 C267.34,91.22 267.34,91.48 267.47,91.74 C267.34,94.36 267.08,97.36 266.95,99.74 C266.95,100.13 267.21,100.65 267.21,101.05 C267.609642,101.12239 268.001431,101.232895 268.38,101.38 Z" id="Path"></path>
            <path d="M296.47,76 C289.41,80.57 288.62,80.18 284.31,87.5 C282.74,90.11 281.7,87.5 281.04,94.42 C280.52,100.04 278.55,105.27 282.74,109.85 C283.65,110.9 285.22,111.28 287.06,111.15 C289.102039,110.73167 290.915963,109.569904 292.15,107.89 C293.59,105.89 295.03,105.14 295.94,102.39 C298.94,94.03 301.3,90.89 301.17,82.01 C301.17,79.55 298.69,74.59 296.47,76 Z M292.41,100.31 C291.23,101.61 291.41,104.49 289.41,103.84 C285.1,102.27 288.62,97.43 288.36,93.12 C288.23,89.2 287.97,85.93 291.89,86.58 C298.43,87.79 295.94,96 292.41,100.34 L292.41,100.31 Z" id="Shape"></path>
            <path d="M321.79,65.57 C324.077044,65.0415915 326.161438,63.8604348 327.79,62.17 C329.63,60.61 327.27,59.43 326.48,58.38 L326.1,57 C323.048691,57.2010451 320.325003,58.9839608 318.92,61.7 C318.26,63.09 319.83,65.83 321.79,65.57 Z" id="Path"></path>
            <path d="M409.18,103.6 C410.28,102.3 411.34,100.98 412.31,99.6 C416.09,96.96 417.74,93.17 420.51,89.46 C421.95,87.64 422.35,84.9 423.65,83.19 C424.18,82.41 424.18,81.37 425.49,81.76 C426.052823,81.9328728 426.491923,82.3757266 426.66,82.94 C427.97,85.81 427.18,88.03 426.4,91.04 C426.338795,91.8747471 425.984617,92.6610241 425.4,93.26 C424.88,94.04 425.27,95.48 424.88,96 C423.31,98.09 423.57,100.45 422.65,102.93 C421.73,105.41 421.35,109.34 423.84,110.38 C426.05,111.29 428.02,108.94 429.71,107.11 C430.24,106.59 429.58,106.2 429.19,105.54 C426.05,99 432.06,92.34 433.63,85.81 L433.38,85.68 L433.63,85.42 C434.423407,83.585041 434.440631,81.5071359 433.677753,79.6592761 C432.914875,77.8114164 431.436807,76.350834 429.58,75.61 C425.93,74.05 429.71,70.39 427.49,69.73 C425.8,69.34 424.36,71.44 423.05,72.22 C421.73211,72.8282122 420.800035,74.0485182 420.56,75.48 C420.31,76.66 421.61,77.32 421.75,78.48 C422,79.92 421.35,81.1 420.56,82.8 C418.944055,86.8598811 416.934467,90.7517823 414.56,94.42 L414.48,94.42 C414.211024,94.7513257 413.988939,95.1181019 413.82,95.51 C412.854237,96.8750131 411.795033,98.1714526 410.65,99.39 C410.39,99.65 410.39,100.7 410.78,100.56 L410.94,100.47 C409.94,101.69 408.64,102.6 407.16,102.01 C404.93,101.09 405.16,98.74 404.81,96.26 C404.15,91.16 405.33,84.89 406.12,79.92 C406.12,79.66 405.98,79.52 405.98,79.27 C405.989764,79.0427927 405.945198,78.816533 405.85,78.61 C405.85,78.48 405.85,78.35 405.72,78.35 C404.55,78.35 403.89,79.92 402.19,80.96 C399.925479,82.1557003 398.196614,84.1631836 397.35,86.58 C396.44,89.33 395.78,92.21 393.83,94.58 C393.355298,95.365436 392.960013,96.1962039 392.65,97.06 C392.13,98.06 391.47,99.81 389.65,99.81 C386.65,99.67 386.25,96.81 386.25,94.96 C386.315117,94.0912184 386.315117,93.2187816 386.25,92.35 C386.25,91.57 385.73,90.91 385.86,90.13 C385.99,86.99 386.91,84.64 387.17,81.9 L386.65,78.5 C385.73,78.24 384.94,78.76 383.9,79.94 C382.57172,81.2732761 381.176591,82.5382384 379.72,83.73 C378.81,84.51 379.46,86.08 379.06,87.13 C378.436569,88.7910643 377.694661,90.4052156 376.84,91.96 C376.189552,93.0651284 375.478466,94.1334273 374.71,95.16 C373.37,96.24 371.01,99.38 369.28,101.16 C366.79,103.91 362.87,106.16 360,106.16 C357.39,106.16 358.3,103.55 358.43,102.38 C359.74,94.93 362.22,86.95 364.05,79.11 C365.23,73.75 364.84,74.01 366.53,68.66 C367.45,65.39 367.97,65.52 369.01,62.38 C369.93,59.51 369.8,58.86 372.54,57.38 C379.08,53.98 388.1,58.82 394.24,54.24 C395.16,53.72 397.64,53.59 396.72,53.32 C393.32,52.32 388.72,53.85 385.22,53.59 C383.13,53.46 381.83,53.59 379.99,53.59 C378.15,53.59 374.63,54.11 374.38,52.15 C373.85,49.15 377.12,43.39 377.38,40.39 C377.52,38.04 373.98,40.25 372.28,41.3 C367.76,44 371,51.85 367,53.15 C363.21,54.33 359.55,51.72 355.88,51.72 C353.27,51.72 352.23,52.63 350.53,54.46 C350.310933,54.7456251 350.227978,55.112878 350.303007,55.464933 C350.378035,55.8169881 350.603515,56.1185089 350.92,56.29 C354.98,57.86 360.07,57.47 364.64,57.08 C365.0288,57.1564741 365.349136,57.4310115 365.484223,57.8035236 C365.61931,58.1760356 365.549407,58.5920882 365.3,58.9 C365.17,60.9 363.6,61.52 363.21,62.96 C362.55,64.52 362.03,65.44 361.38,67.14 C360.590932,68.8737301 359.671634,70.5451809 358.63,72.14 C357.73,73.78 357.04,74.99 356.44,75.98 C354,76.98 353.09,80.23 351.78,82.76 C351.3,83.45 350.78,84.25 350.14,85.21 L349.33,86.37 C347.821902,88.1244912 346.124986,89.7073848 344.27,91.09 C343.62,91.74 342.57,90.69 342.44,89.92 C342.238975,88.1791174 342.238975,86.4208826 342.44,84.68 C342.7,83.11 342.17,81.29 342.31,80.11 C342.910737,76.1926338 345.406892,72.8245093 348.98,71.11 C351.19,70.2 353.54,68.23 353.42,66.11 C353.03,61.79 347.93,66.76 345.31,68.11 C339.03,71.25 337.31,77.79 334.99,83.54 C332.24,90.07 327.92,96.6 321.13,100.4 C319.985931,101.233063 318.930398,102.181367 317.98,103.23 C317.863557,103.240228 317.746443,103.240228 317.63,103.23 C316.32,103.36 315.53,102.23 315.63,100.23 L315.63,94.88 C315.63,89.65 318.25,84.82 319.43,79.88 L318.77,78.7 C315.77,79.36 312.24,81.57 310.93,84.32 C309.838665,86.3009777 308.879895,88.3521443 308.06,90.46 C307.573731,91.8465407 306.961159,93.1854963 306.23,94.46 C303.88,98.65 300.23,100.87 299.43,103.46 C304.14,101.46 305.84,98.37 307.66,100.19 C309.23,101.76 308.32,106.86 310.15,107.91 C313.81,109.91 318.15,106.21 321.26,103.46 C321.501047,103.241547 321.712806,102.992814 321.89,102.72 C324.919195,100.634089 327.533713,98.0026157 329.6,94.96 C330.25,94.05 331.04,93.01 331.82,92.09 C332.34,91.44 333.52,90.91 334.04,92.09 C335.300034,94.6694632 336.053647,97.4666567 336.26,100.33 C336.53,104.25 329.73,105.03 329.47,109.08 C329.34,111.57 332.09,111.44 333.65,111.57 C337.83,111.83 341.65,108.17 344.49,104.77 C346.2,102.77 345.15,100.06 344.89,97.71 C344.76,95.62 347.24,94.44 348.03,92.71 C348.14,92.47 348.27,92.23 348.4,92 C349.52,90.66 350.65,89.25 352.07,87.61 C352.42,87.14 352.82,86.47 353.25,85.74 C353.92,85.03 354.59,84.35 355.25,83.74 C356.112199,82.5715865 356.73109,81.2419906 357.07,79.83 C357.84,78.47 358.53,76.78 359.81,76.29 C359.424629,79.182237 358.754714,82.0293732 357.81,84.79 C356.009827,89.9328643 354.481054,95.1667423 353.23,100.47 C352.45,104.13 350.1,109.22 353.63,111.05 C355.33,111.97 358.2,109.88 359.77,109.22 C363.29,107.65 366.43,107.22 369.18,104.22 C370.9,102.29 374.28,98.79 375.33,96.52 C375.749702,96.0713627 376.286637,95.7492021 376.88,95.59 C379.09,95.2 379.09,97.81 379.09,98.86 C379.04654,99.6957936 379.137702,100.53314 379.36,101.34 C380.36,104.09 381.19,106.57 383.8,106.7 C385.734403,106.707056 387.602238,105.994143 389.04,104.7 C390.73,103.39 392.04,100.78 394.53,100.26 C396.74,99.86 397.53,102.34 398.05,103.79 C398.44,104.79 398.7,106.53 399.87,107.05 C400.4,107.18 401.06,107.44 401.57,107.57 C401.84,107.71 401.84,107.32 402.49,107.18 C405.13,107.13 407.09,106.08 409.18,103.6 Z" id="Path"></path>
            <path d="M456.44,93.8 C452.52,92.89 451.74,102.3 447.17,102.42 C445.47,102.42 443.63,102.04 443.12,100.34 C442.72,98.9 441.94,96.54 443.37,95.34 C448.99,90.9 456.31,85.02 455.92,77.18 C455.79,75.18 453.31,73.91 451.21,75.18 C447.305489,77.919923 443.790186,81.176204 440.76,84.86 C437.88,88.39 436.84,89.42 435.66,93.09 C435.27,94.09 435.79,95.44 435.66,96.48 C435.27,100.67 436.19,104.33 438.41,107.07 C439.85,108.9 443.25,107.46 445.47,106.68 C447.268529,105.785744 448.901827,104.59205 450.3,103.15 C453.05,100.86 460.36,94.72 456.44,93.8 Z M445.2,85.44 C445.86,83.87 446.25,81.26 448.73,81.78 L449.12,83.78 C448.21,86.52 447.95,91.23 444.55,91.1 C442.46,91.06 444.42,87.14 445.2,85.44 Z" id="Shape"></path>
            <path d="M467.09,73.71 C463.39,73.71 460.64,76.28 460.64,79.44 C460.64,82.6 463.39,85.17 467.09,85.17 C470.79,85.17 473.53,82.6 473.53,79.44 C473.53,76.28 470.79,73.71 467.09,73.71 Z M467.09,84.53 C464.317909,84.372098 462.181485,82.0256311 462.283474,79.2509209 C462.385464,76.4762106 464.688387,74.2929196 467.464589,74.3389546 C470.240792,74.3849897 472.470062,76.6434337 472.48,79.42 C472.46225,80.8188056 471.87949,82.1509631 470.864288,83.1134272 C469.849086,84.0758914 468.487764,84.5868255 467.09,84.53 Z" id="Shape"></path>
            <path d="M470.18,82.24 C469.398139,81.4907501 468.724947,80.6357968 468.18,79.7 C468.117212,79.6372034 468.090817,79.5467047 468.11,79.46 C468.838166,79.2548867 469.371019,78.6312523 469.46,77.88 C469.46,76.42 468.04,76.21 466.93,76.21 C465.82,76.21 465.15,76.21 464.15,76.28 C464.099521,76.3108938 464.068741,76.3658172 464.068741,76.425 C464.068741,76.4841828 464.099521,76.5391062 464.15,76.57 L464.43,76.57 C465.08,76.63 465.08,76.8 465.08,77.83 L465.08,81 C465.08,82 465.08,82.22 464.43,82.31 L464.15,82.31 C464.103421,82.3479822 464.076392,82.4048979 464.076392,82.465 C464.076392,82.5251021 464.103421,82.5820178 464.15,82.62 C464.61,82.62 465.07,82.62 465.62,82.62 C466.17,82.62 466.62,82.62 467.08,82.62 C467.134837,82.5876233 467.168485,82.5286814 467.168485,82.465 C467.168485,82.4013186 467.134837,82.3423767 467.08,82.31 L466.71,82.31 C466.16,82.26 466.08,82.07 466.08,81 L466.08,80.07 C466.08,79.89 466.08,79.85 466.54,79.85 C466.749339,79.8198151 466.96064,79.8902486 467.11,80.04 C467.46,80.48 467.87,81.18 468.11,81.51 C468.537005,82.2807622 469.359301,82.7478882 470.24,82.72 C470.427784,82.7200586 470.615197,82.7033252 470.8,82.67 C470.850929,82.6130599 470.850929,82.5269401 470.8,82.47 C470.573231,82.465862 470.354604,82.3847585 470.18,82.24 L470.18,82.24 Z M466.81,79.41 C466.17,79.41 466.09,79.41 466.09,79.06 L466.09,77.06 C466.09,76.76 466.09,76.68 466.76,76.68 C467.141396,76.646893 467.519713,76.7714149 467.806884,77.0245789 C468.094055,77.277743 468.265027,77.6374623 468.28,78.02 C468.310737,78.4117162 468.162657,78.796318 467.87716,79.0662774 C467.591664,79.3362367 467.199386,79.462586 466.81,79.41 L466.81,79.41 Z" id="Shape"></path>
        </g>
    </g>
</svg>