<?xml version="1.0" encoding="UTF-8"?>
<svg xmlns="http://www.w3.org/2000/svg" xmlns:xlink="http://www.w3.org/1999/xlink" width="150px" height="150px" viewBox="0 0 150 56" version="1.1">
<g id="surface1">
<path style=" stroke:none;fill-rule:nonzero;fill:rgb(26.666667%,26.666667%,26.666667%);fill-opacity:1;" d="M 27.667969 46.546875 C 26.589844 46.9375 25.484375 47.25 24.359375 47.492188 C 23.492188 47.695312 22.828125 47.695312 22.042969 47.808594 C 21.960938 47.890625 21.960938 47.972656 21.753906 47.972656 L 14.847656 47.972656 C 14.679688 47.972656 14.765625 47.765625 14.558594 47.765625 C 14.347656 47.765625 14.433594 47.972656 14.269531 47.972656 C 14.105469 47.972656 14.105469 47.765625 13.894531 47.765625 C 13.6875 47.765625 13.609375 48.054688 13.609375 48.136719 C 14.144531 48.21875 14.722656 48.632812 15.507812 48.300781 C 15.589844 48.425781 15.589844 48.507812 15.753906 48.507812 L 21.585938 48.425781 C 21.75 48.425781 22.703125 48.136719 22.949219 48.109375 C 24.359375 47.90625 26.429688 47.449219 27.875 46.710938 C 28.078125 46.628906 28.453125 46.667969 28.660156 46.546875 C 29.195312 46.257812 29.816406 45.679688 30.242188 45.515625 C 30.460938 45.445312 30.675781 45.351562 30.875 45.230469 L 30.746094 45.023438 C 29.65625 45.558594 28.703125 46.132812 27.667969 46.546875 Z M 27.667969 46.546875 "/>
<path style=" stroke:none;fill-rule:nonzero;fill:rgb(26.666667%,26.666667%,26.666667%);fill-opacity:1;" d="M 8.640625 46.832031 C 8.519531 46.796875 8.476562 46.667969 8.324219 46.628906 C 8.175781 46.589844 7.871094 46.628906 7.789062 46.546875 C 7.707031 46.464844 7.542969 46.257812 7.496094 46.257812 C 7.25 46.210938 7.003906 46.183594 6.753906 46.175781 C 6.214844 45.96875 5.511719 45.390625 5.347656 45.390625 C 5.183594 45.390625 5.390625 45.476562 5.179688 45.476562 C 4.972656 45.476562 4.148438 44.777344 3.691406 44.324219 C 3.570312 44.242188 3.527344 43.949219 3.488281 43.910156 C 3.242188 43.863281 3.015625 43.753906 2.824219 43.59375 C 2.535156 43.304688 2.371094 42.851562 2.078125 42.964844 C 1.914062 42.511719 1.792969 41.933594 1.625 41.605469 C 1.292969 41.070312 1.046875 40.535156 1.375 39.753906 C 1.257812 39.761719 1.140625 39.714844 1.058594 39.628906 C 0.925781 39.859375 0.742188 40.054688 0.523438 40.203125 L 0.441406 40.519531 L 0.808594 40.519531 C 0.5625 41.300781 1.058594 41.875 1.390625 42.578125 C 1.625 43.046875 1.933594 43.476562 2.300781 43.851562 C 2.503906 43.957031 2.714844 44.039062 2.933594 44.101562 C 3.140625 44.265625 3.140625 44.679688 3.25 44.761719 C 3.359375 44.84375 3.582031 44.800781 3.582031 44.84375 C 3.664062 44.925781 3.746094 45.214844 3.871094 45.253906 C 3.992188 45.296875 4.242188 45.253906 4.367188 45.296875 C 4.492188 45.335938 4.367188 45.542969 4.367188 45.609375 C 4.90625 45.652344 6.023438 46.355469 6.1875 46.355469 C 6.351562 46.355469 6.269531 46.1875 6.476562 46.1875 C 6.6875 46.1875 6.792969 46.847656 6.976562 46.847656 C 7.15625 46.847656 6.890625 46.640625 7.097656 46.640625 C 7.308594 46.640625 7.097656 46.804688 7.097656 46.804688 C 7.414062 46.804688 7.925781 47.09375 8.089844 47.09375 C 8.253906 47.09375 8.296875 47.011719 8.460938 47.011719 C 8.625 47.011719 8.75 47.421875 9.289062 47.328125 C 9.332031 47.371094 9.164062 47.578125 9.375 47.578125 C 9.582031 47.578125 9.496094 47.453125 9.660156 47.453125 C 9.953125 47.480469 10.242188 47.519531 10.527344 47.578125 C 10.570312 47.660156 10.570312 47.945312 10.738281 47.945312 C 10.90625 47.945312 11.894531 47.988281 12.351562 47.988281 C 12.566406 48.019531 12.777344 48.058594 12.984375 48.113281 C 13.175781 48.089844 13.351562 48.003906 13.480469 47.863281 C 12.160156 47.496094 10.835938 47 9.554688 46.878906 C 9.222656 46.832031 8.808594 46.917969 8.640625 46.832031 Z M 8.640625 46.832031 "/>
<path style=" stroke:none;fill-rule:nonzero;fill:rgb(26.666667%,26.666667%,26.666667%);fill-opacity:1;" d="M 32.910156 29.996094 C 32.855469 30.234375 32.953125 30.488281 33.160156 30.625 C 33.03125 30.4375 32.945312 30.21875 32.910156 29.996094 Z M 32.910156 29.996094 "/>
<path style=" stroke:none;fill-rule:nonzero;fill:rgb(26.666667%,26.666667%,26.666667%);fill-opacity:1;" d="M 35.195312 30.28125 C 35.15625 30.363281 35.113281 30.652344 35.03125 30.734375 C 34.992188 30.53125 35.238281 30.160156 35.195312 29.996094 C 35.0625 29.351562 34.808594 28.734375 34.453125 28.183594 C 33.859375 27.300781 33.359375 26.363281 32.960938 25.382812 C 32.921875 25.339844 32.757812 25.339844 32.675781 25.339844 C 32.464844 24.96875 32.011719 24.601562 31.84375 24.3125 C 31.558594 23.777344 30.855469 23.199219 30.398438 22.625 C 30.191406 22.375 30.023438 21.925781 29.820312 21.757812 C 30.191406 21.183594 30.855469 20.523438 30.9375 20.320312 L 31.019531 19.867188 C 30.5625 19.867188 30.191406 19.785156 29.984375 19.785156 C 29.351562 19.808594 28.71875 19.792969 28.085938 19.738281 C 28.003906 19.574219 27.753906 19.453125 27.671875 19.246094 C 27.382812 18.753906 27.21875 18.09375 27.007812 17.765625 C 25.6875 15.789062 24.324219 13.238281 25.109375 10.640625 C 25.109375 10.519531 24.988281 10.601562 25.070312 10.355469 C 25.148438 10.132812 25.253906 9.921875 25.386719 9.722656 C 25.636719 9.1875 26.335938 8.652344 26.835938 8.238281 C 26.957031 8.117188 27.042969 7.871094 27.125 7.832031 C 27.714844 7.457031 28.335938 7.140625 28.988281 6.886719 C 29.554688 6.738281 30.136719 6.640625 30.722656 6.597656 C 30.929688 6.597656 30.929688 6.433594 31.46875 6.96875 C 31.507812 7.875 31.339844 8.820312 31.386719 9.605469 C 31.386719 9.769531 31.589844 9.917969 31.675781 10.015625 C 31.898438 10.097656 32.136719 10.140625 32.375 10.136719 C 33.410156 10.136719 34.402344 8.941406 34.734375 7.585938 C 34.894531 7.148438 34.910156 6.671875 34.773438 6.226562 C 34.820312 5.996094 34.851562 5.761719 34.859375 5.527344 C 34.777344 5.417969 34.71875 5.289062 34.691406 5.15625 C 34.753906 4.878906 34.726562 4.589844 34.609375 4.332031 C 33.976562 3.304688 33.574219 3.179688 32.253906 3.179688 C 31.09375 3.179688 31.757812 3.179688 29.691406 3.675781 C 28.859375 3.878906 27.953125 4.496094 27.125 5.074219 C 26.875 5.238281 26.628906 5.359375 26.421875 5.527344 C 25.917969 5.902344 25.449219 6.3125 25.015625 6.761719 C 24.886719 6.839844 24.746094 6.894531 24.601562 6.925781 C 22.535156 8.984375 22.285156 10.507812 21.957031 11.824219 C 21.664062 12.9375 21.324219 13.761719 21.664062 15.121094 C 21.746094 15.367188 21.875 15.613281 21.914062 15.75 C 22.203125 17.890625 23.523438 19.414062 24.394531 20.730469 C 22.988281 21.105469 21.664062 21.046875 20.339844 21.476562 C 19.347656 21.789062 18.191406 22.378906 17.160156 22.710938 C 16.742188 22.867188 16.34375 23.058594 15.957031 23.285156 C 15.707031 23.367188 15.296875 23.449219 15.046875 23.53125 C 14.632812 23.65625 14.054688 24.109375 13.640625 24.3125 C 12.8125 24.769531 11.863281 25.011719 11.242188 25.386719 C 10.859375 25.625 10.484375 25.886719 10.125 26.164062 C 10.003906 26.246094 9.710938 26.246094 9.589844 26.332031 C 8.679688 26.867188 7.476562 27.8125 6.859375 28.183594 C 6.476562 28.511719 6.078125 28.820312 5.664062 29.101562 C 4.054688 30.292969 1.867188 32.519531 0.824219 34.207031 C 0.785156 34.289062 0.871094 34.371094 0.824219 34.453125 C 0.496094 34.640625 0.257812 34.953125 0.164062 35.320312 C 0.132812 35.546875 0.175781 35.777344 0.289062 35.976562 C 0.308594 35.640625 0.363281 35.3125 0.457031 34.988281 C 0.773438 34.945312 0.742188 35.113281 0.949219 34.824219 C 1.40625 35.277344 0.496094 35.894531 0.992188 36.183594 C 0.792969 36.335938 0.640625 36.53125 0.539062 36.757812 C 0.371094 37.421875 0.246094 38.984375 0.496094 39.4375 C 0.609375 39.375 0.714844 39.308594 0.8125 39.230469 C 0.8125 38.777344 1.128906 37.542969 0.773438 37.339844 C 1.351562 36.148438 1.847656 34.914062 2.425781 33.96875 C 2.765625 33.5625 3.125 33.179688 3.503906 32.8125 C 3.820312 32.730469 4.410156 31.949219 4.703125 31.742188 C 4.742188 31.628906 4.796875 31.523438 4.867188 31.429688 C 5.609375 30.9375 6.191406 30.355469 6.765625 30.027344 C 7.058594 29.863281 7.46875 29.742188 7.800781 29.535156 C 7.964844 29.410156 8.089844 29.164062 8.171875 29.125 C 9.867188 28.21875 11.109375 27.308594 12.019531 26.816406 C 13.347656 26.046875 14.726562 25.363281 16.140625 24.765625 C 16.226562 24.648438 16.324219 24.542969 16.429688 24.449219 C 16.695312 24.429688 16.957031 24.390625 17.214844 24.328125 C 17.667969 24.121094 18.332031 23.667969 18.742188 23.546875 C 18.953125 23.464844 19.199219 23.546875 19.375 23.464844 C 20.125 23.089844 20.992188 22.886719 21.488281 22.640625 C 21.570312 22.554688 21.691406 22.390625 21.773438 22.324219 C 22.027344 22.230469 22.292969 22.1875 22.5625 22.199219 C 22.644531 22.121094 22.769531 22.035156 22.851562 21.957031 C 23.722656 21.832031 23.84375 21.460938 24.464844 21.460938 C 25.414062 21.460938 24.960938 21.871094 26.242188 22.695312 C 26.398438 22.863281 26.523438 23.058594 26.613281 23.269531 C 25.828125 23.808594 24.21875 25.042969 23.511719 25.414062 C 23.140625 25.617188 22.6875 26.042969 22.4375 26.195312 C 22.023438 26.445312 21.570312 26.566406 21.171875 26.824219 C 21.007812 26.949219 20.855469 27.15625 20.71875 27.238281 C 20.304688 27.363281 19.601562 27.570312 19.1875 27.730469 C 17.324219 28.558594 14.84375 29.621094 13.492188 30.078125 C 12.746094 30.324219 11.910156 31.152344 11.300781 31.851562 C 11.125 31.902344 10.941406 31.917969 10.761719 31.890625 L 10.640625 32.425781 C 10.804688 32.671875 11.050781 33.003906 11.214844 33.003906 C 11.378906 33.003906 11.300781 32.796875 11.507812 32.796875 C 11.882812 33.0625 12.316406 33.230469 12.773438 33.289062 C 13.722656 33.289062 14.550781 32.917969 15.421875 32.34375 L 15.542969 31.808594 C 15.007812 31.355469 14.261719 31.640625 13.765625 30.988281 C 14.054688 30.695312 14.46875 30.285156 14.632812 30.285156 C 14.796875 30.285156 14.589844 30.40625 14.757812 30.40625 C 14.921875 30.40625 15.792969 29.777344 16.246094 29.585938 C 16.457031 29.503906 16.878906 29.378906 17.117188 29.296875 C 17.199219 29.253906 17.433594 28.804688 17.609375 28.804688 C 17.789062 28.804688 17.574219 29.011719 17.734375 29.011719 C 17.894531 29.011719 18.109375 28.722656 18.230469 28.675781 C 19.101562 28.269531 20.257812 27.894531 20.960938 27.570312 C 21.167969 27.488281 21.25 27.28125 21.292969 27.28125 C 21.996094 27.15625 22.875 26.578125 23.859375 25.960938 C 24.230469 25.757812 24.726562 25.550781 25.125 25.332031 C 25.207031 25.289062 25.207031 25.167969 25.289062 25.125 C 25.867188 24.917969 26.570312 24.464844 26.941406 24.34375 C 27.234375 24.21875 27.234375 23.972656 27.523438 23.972656 C 27.808594 23.972656 27.644531 24.097656 27.855469 24.289062 C 27.9375 24.410156 28.140625 24.371094 28.226562 24.453125 C 28.804688 24.988281 29.425781 25.605469 29.808594 26.027344 C 29.832031 25.953125 29.875 25.882812 29.929688 25.824219 C 30.085938 26.25 30.363281 26.625 30.726562 26.898438 C 30.773438 26.816406 30.773438 26.730469 30.855469 26.648438 C 30.882812 26.796875 30.835938 26.953125 30.726562 27.0625 C 30.855469 27.144531 31.019531 27.183594 31.019531 27.265625 C 31.058594 27.515625 31.265625 27.679688 31.308594 27.84375 C 31.308594 27.554688 31.347656 27.527344 31.597656 27.265625 C 31.597656 27.472656 31.722656 27.636719 31.804688 27.636719 C 31.84375 27.554688 31.84375 27.472656 31.929688 27.390625 C 32.085938 27.652344 32.117188 27.96875 32.011719 28.253906 C 32.09375 28.460938 32.328125 28.546875 32.382812 28.667969 C 32.464844 28.871094 32.382812 29.246094 32.464844 29.410156 C 32.589844 29.65625 32.675781 29.898438 32.78125 29.945312 C 32.78125 29.734375 32.617188 29.410156 32.660156 29.246094 C 32.742188 28.996094 32.660156 29.117188 32.78125 29.039062 C 32.988281 29.328125 33.277344 29.355469 33.414062 29.570312 C 33.785156 30.46875 34.035156 31.410156 34.160156 32.371094 C 34.199219 32.453125 34.074219 32.496094 34.035156 32.539062 C 34.042969 33.011719 34.097656 33.480469 34.199219 33.9375 C 34.324219 34.636719 34.65625 35.199219 34.613281 35.582031 C 34.574219 35.96875 34.367188 36.613281 34.53125 37.027344 C 34.613281 37.148438 34.777344 37.273438 34.777344 37.339844 C 34.738281 37.835938 34.738281 38.332031 34.777344 38.824219 C 34.761719 39.089844 34.71875 39.351562 34.65625 39.605469 C 34.777344 39.320312 35.152344 38.949219 35.191406 38.742188 C 35.234375 38.539062 34.988281 38.167969 35.027344 37.917969 C 35.070312 37.667969 35.234375 37.835938 35.316406 37.835938 L 35.441406 37.386719 C 35.359375 37.386719 35.234375 37.425781 35.191406 37.339844 L 35.273438 36.96875 C 35.441406 36.878906 35.582031 36.753906 35.691406 36.601562 C 35.753906 36.101562 35.863281 35.605469 36.007812 35.121094 C 36.089844 35.039062 36.214844 35.160156 36.296875 34.914062 C 36.460938 34.171875 35.800781 31.492188 35.636719 30.921875 C 35.566406 30.695312 35.359375 30.320312 35.195312 30.28125 Z M 30.644531 26.617188 C 30.644531 26.535156 30.523438 26.367188 30.480469 26.207031 C 30.683594 26.21875 30.84375 26.382812 30.855469 26.582031 C 30.785156 26.597656 30.714844 26.609375 30.644531 26.617188 Z M 31.226562 26.535156 C 31.265625 26.289062 31.058594 26 31.019531 25.835938 L 31.390625 25.835938 C 31.4375 26.074219 31.503906 26.308594 31.597656 26.535156 Z M 31.859375 27.195312 C 31.734375 27.113281 31.609375 26.78125 31.488281 26.699219 C 31.660156 26.644531 31.847656 26.710938 31.941406 26.867188 Z M 32.519531 27.195312 C 32.394531 27.074219 32.320312 26.914062 32.3125 26.738281 L 32.644531 26.738281 Z M 35.167969 33.902344 C 35.125 33.988281 35.003906 34.03125 34.878906 34.113281 C 35.035156 34.574219 35.0625 35.074219 34.960938 35.550781 C 34.90625 35.367188 34.804688 35.199219 34.671875 35.058594 C 34.671875 34.976562 34.792969 34.769531 34.792969 34.6875 C 34.546875 34.375 34.628906 34.058594 34.421875 33.617188 C 34.589844 33.660156 34.921875 33.660156 34.921875 33.988281 C 35.003906 33.863281 34.921875 34.03125 34.960938 33.78125 C 35.003906 33.53125 34.878906 33.328125 34.839844 32.996094 C 34.796875 32.664062 34.921875 32.175781 35.003906 31.886719 C 35.042969 31.804688 34.878906 31.804688 34.921875 31.597656 L 35.042969 31.1875 C 35.195312 31.621094 35.320312 32.058594 35.417969 32.503906 C 35.441406 32.796875 34.867188 33.660156 35.15625 33.902344 Z M 35.167969 33.902344 "/>
<path style=" stroke:none;fill-rule:nonzero;fill:rgb(26.666667%,26.666667%,26.666667%);fill-opacity:1;" d="M 33.792969 41.359375 C 33.554688 42.085938 33.105469 42.730469 32.507812 43.210938 C 32.332031 43.382812 32.140625 43.535156 31.929688 43.664062 C 31.9375 43.78125 31.90625 43.898438 31.84375 43.996094 L 31.679688 44.117188 L 31.515625 44.746094 C 32.199219 44.171875 32.835938 43.539062 33.414062 42.859375 C 33.878906 42.207031 34.304688 41.535156 34.695312 40.839844 C 34.738281 40.636719 34.574219 40.304688 34.53125 40.019531 C 34.410156 40.496094 34.410156 41.316406 33.792969 41.359375 Z M 33.792969 41.359375 "/>
<path style=" stroke:none;fill-rule:nonzero;fill:rgb(26.666667%,26.666667%,26.666667%);fill-opacity:1;" d="M 45.523438 36.460938 C 44.574219 34.359375 46.4375 31.804688 46.4375 29.621094 C 46.476562 29.375 46.269531 29.167969 46.4375 28.839844 C 46.519531 28.675781 46.355469 28.347656 46.105469 28.386719 C 45.609375 28.542969 45.15625 28.8125 44.78125 29.167969 C 44.699219 29.292969 44.464844 29.484375 44.367188 29.292969 L 43.875 29.609375 C 43.085938 29.445312 42.839844 30.890625 42.175781 30.476562 C 41.804688 30.269531 42.339844 29.445312 42.339844 28.992188 C 42.367188 28.667969 42.4375 28.351562 42.546875 28.046875 C 42.839844 26.398438 43.25 24.671875 43.417969 22.941406 L 43.625 22.652344 C 43.5 21.582031 44.699219 20.714844 44.574219 19.605469 C 44.5625 19.480469 44.574219 19.355469 44.613281 19.234375 C 44.777344 18.453125 43.824219 18.863281 43.375 19.070312 C 41.015625 20.097656 41.675781 22.535156 40.976562 24.339844 L 40.558594 24.75 C 40.226562 25.574219 37.789062 29.035156 37.25 30.808594 L 37.042969 31.792969 C 38.574219 28.828125 39.402344 28.457031 39.691406 28.046875 C 39.816406 27.878906 40.226562 27.675781 40.226562 28.046875 C 40.269531 29.363281 39.734375 30.597656 39.652344 31.917969 C 39.539062 32.40625 39.457031 32.898438 39.402344 33.398438 C 39.359375 34.425781 38.160156 35.789062 38.90625 36.445312 C 39.539062 37.023438 40.726562 35.910156 41.179688 35.207031 C 41.953125 34.105469 42.574219 32.90625 43.039062 31.640625 C 43.078125 31.476562 42.722656 31.558594 42.625 31.394531 L 42.722656 31.308594 C 43.039062 31.511719 43.300781 31.101562 43.589844 31.390625 C 44.003906 31.761719 43.464844 32.625 43.507812 33.242188 C 43.507812 33.695312 43.300781 34.027344 43.257812 34.4375 C 43.214844 35.34375 42.804688 36.578125 43.132812 37.445312 C 43.382812 38.074219 43.917969 38.347656 44.5 38.761719 C 45.136719 39.253906 45.925781 39.503906 46.730469 39.460938 C 47.144531 39.421875 47.558594 39.503906 47.929688 39.046875 C 48.011719 38.886719 48.222656 39.175781 48.34375 39.089844 C 48.976562 38.773438 50.703125 37.898438 50.082031 37.898438 C 48.175781 37.980469 46.3125 38.238281 45.523438 36.460938 Z M 45.523438 36.460938 "/>
<path style=" stroke:none;fill-rule:nonzero;fill:rgb(26.666667%,26.666667%,26.666667%);fill-opacity:1;" d="M 54.707031 32.503906 C 53.464844 32.21875 53.214844 35.183594 51.769531 35.222656 C 51.230469 35.222656 50.652344 35.101562 50.488281 34.566406 C 50.363281 34.113281 50.113281 33.367188 50.570312 32.992188 C 52.347656 31.589844 54.664062 29.738281 54.542969 27.269531 C 54.5 26.640625 53.710938 26.238281 53.050781 26.640625 C 51.8125 27.5 50.703125 28.527344 49.742188 29.6875 C 48.832031 30.800781 48.503906 31.125 48.128906 32.28125 C 48.007812 32.597656 48.171875 33.023438 48.128906 33.347656 C 48.007812 34.667969 48.292969 35.824219 48.996094 36.6875 C 49.453125 37.261719 50.527344 36.808594 51.230469 36.5625 C 51.800781 36.28125 52.320312 35.90625 52.761719 35.449219 C 53.628906 34.730469 55.945312 32.796875 54.707031 32.503906 Z M 51.148438 29.871094 C 51.355469 29.375 51.480469 28.554688 52.265625 28.71875 L 52.390625 29.347656 C 52.101562 30.210938 52.019531 31.695312 50.941406 31.65625 C 50.28125 31.640625 50.902344 30.40625 51.148438 29.871094 Z M 51.148438 29.871094 "/>
<path style=" stroke:none;fill-rule:nonzero;fill:rgb(26.666667%,26.666667%,26.666667%);fill-opacity:1;" d="M 64.375 34.113281 C 64.070312 34.15625 63.773438 34.261719 63.507812 34.425781 C 62.972656 34.554688 62.183594 34.59375 61.976562 34.113281 C 61.480469 32.917969 62.226562 31.722656 62.269531 30.363281 C 62.308594 29.910156 63.054688 29.210938 62.515625 29.128906 C 61.648438 29.050781 61.191406 29.996094 60.53125 30.53125 L 60.53125 30.820312 C 60.117188 31.515625 59.785156 32.257812 59.289062 32.957031 C 58.625 33.902344 58.128906 35.792969 56.808594 35.59375 C 56.308594 35.511719 56.683594 34.605469 56.808594 34.015625 C 56.980469 33.320312 57.230469 32.644531 57.550781 32 C 57.800781 31.546875 58.296875 31.503906 58.875 31.371094 C 59.867188 31.121094 60.363281 29.765625 60.574219 28.777344 C 60.65625 28.410156 60.574219 27.789062 60.035156 27.992188 C 58.816406 28.542969 57.792969 29.449219 57.097656 30.589844 C 56.519531 31.410156 56.1875 32.359375 55.773438 33.304688 C 55.523438 33.933594 55.277344 34.5 54.988281 35.121094 C 54.707031 35.695312 54.578125 36.332031 54.617188 36.96875 C 54.695312 37.425781 55.320312 37.507812 55.773438 37.339844 C 57.222656 36.890625 58.007812 35.613281 59.082031 34.621094 C 59.25 34.5 59.539062 34.308594 59.578125 34.5 C 59.703125 35.199219 60.035156 36.074219 60.65625 36.273438 C 61.976562 36.769531 63.09375 35.613281 64.171875 34.789062 C 64.375 34.644531 64.664062 34.113281 64.375 34.113281 Z M 64.375 34.113281 "/>
<path style=" stroke:none;fill-rule:nonzero;fill:rgb(26.666667%,26.666667%,26.666667%);fill-opacity:1;" d="M 84.972656 10.023438 C 85.085938 9.460938 85.308594 8.925781 85.632812 8.449219 C 85.949219 8.570312 85.839844 8.859375 85.800781 9.230469 C 85.800781 9.394531 85.304688 11.535156 85.304688 11.699219 C 85.21875 12.605469 85.550781 12.398438 85.46875 13.015625 L 85.386719 13.140625 C 85.304688 13.222656 85.386719 13.386719 85.386719 13.429688 C 85.257812 13.570312 85.15625 13.742188 85.09375 13.921875 C 85.09375 14.128906 85.507812 14.996094 85.507812 15.183594 C 85.507812 15.371094 84.972656 16.128906 84.972656 16.296875 C 84.972656 16.464844 85.09375 17.527344 85.015625 18.269531 C 85.261719 18.203125 85.523438 18.21875 85.757812 18.3125 C 85.839844 18.230469 86.046875 18.109375 86.046875 17.898438 C 86.089844 17.777344 85.925781 17.613281 85.925781 17.449219 C 86.003906 17.152344 86.058594 16.847656 86.089844 16.542969 C 86.089844 16.417969 85.964844 16.253906 85.925781 16.132812 C 85.945312 15.976562 85.988281 15.824219 86.046875 15.679688 L 85.964844 15.679688 C 85.964844 15.46875 86.132812 15.429688 86.089844 15.390625 C 86.042969 15.355469 86.046875 15.390625 86.007812 15.308594 L 86.007812 15.183594 C 86.175781 15.019531 86.339844 14.769531 86.460938 14.648438 C 86.503906 14.398438 86.378906 14.152344 86.503906 13.867188 C 86.472656 12.875 86.542969 11.878906 86.710938 10.898438 C 86.753906 10.734375 86.960938 10.613281 87 10.40625 C 87.082031 9.957031 87.082031 9.5 87.164062 9.050781 C 87.207031 8.882812 87.371094 8.761719 87.453125 8.59375 C 87.542969 8.324219 87.527344 8.03125 87.410156 7.773438 C 87.496094 7.605469 87.578125 7.523438 87.578125 7.359375 C 87.671875 6.957031 87.699219 6.539062 87.660156 6.125 C 87.539062 5.875 87.335938 5.671875 87.082031 5.550781 C 86.960938 5.464844 86.671875 5.507812 86.542969 5.507812 C 86.257812 5.464844 85.964844 5.179688 85.59375 5.179688 C 85.59375 5.300781 85.425781 5.464844 85.21875 5.671875 C 85.171875 5.8125 85.117188 5.949219 85.054688 6.085938 C 84.820312 6.339844 84.609375 6.617188 84.421875 6.90625 C 84.296875 7.152344 84.257812 7.605469 84.132812 7.898438 C 84.007812 8.1875 83.554688 8.761719 83.347656 9.132812 C 83.148438 9.542969 82.929688 9.941406 82.6875 10.324219 C 82.605469 10.40625 82.640625 10.613281 82.605469 10.734375 C 81.441406 11.269531 81.609375 11.929688 81.277344 12.878906 C 80.683594 14.792969 80.214844 16.746094 79.875 18.726562 C 79.832031 19.011719 79.792969 19.136719 80.121094 19.21875 C 80.039062 19.464844 79.707031 19.851562 79.582031 20.164062 C 79.417969 20.65625 79.046875 21.933594 79.089844 22.632812 C 79.292969 22.425781 79.40625 22.34375 79.375 22.097656 C 79.582031 21.808594 79.832031 21.46875 80.007812 21.191406 C 80.089844 21.152344 80.089844 21.070312 80.089844 21.234375 C 80.050781 21.476562 79.058594 23.753906 78.890625 23.753906 L 78.726562 23.753906 C 78.6875 23.875 78.808594 24.121094 78.808594 24.285156 C 78.808594 24.449219 78.3125 25.152344 78.144531 25.484375 C 78.109375 25.152344 78.097656 24.824219 78.109375 24.492188 C 78.023438 23.863281 78.191406 21.65625 77.984375 20.714844 C 77.898438 20.398438 78.066406 18.65625 78.023438 18.078125 C 77.941406 17.210938 77.984375 15.648438 77.734375 14.660156 C 77.609375 14.03125 76.574219 14.660156 76.203125 14.167969 C 76.214844 13.546875 76.273438 12.925781 76.371094 12.3125 C 76.453125 12.023438 76.824219 11.574219 77.03125 11.121094 C 77.167969 10.734375 77.265625 10.332031 77.320312 9.925781 C 77.359375 9.347656 77.402344 9.144531 77.003906 8.566406 C 77.054688 8.511719 77.132812 8.480469 77.207031 8.484375 C 77.199219 8.253906 77.128906 8.027344 77.003906 7.828125 C 77.828125 6.425781 76.628906 5.808594 75.84375 5.9375 C 75.566406 6.019531 75.300781 6.144531 75.058594 6.308594 C 74.742188 7.460938 74.769531 8.859375 74.523438 10.054688 C 74.480469 10.222656 74.273438 10.386719 74.230469 10.589844 C 74.023438 11.289062 73.695312 13.390625 73.363281 14.625 C 73.28125 15.039062 73.03125 15.820312 72.867188 16.316406 C 72.785156 16.5625 72.574219 16.890625 72.453125 17.261719 C 72.328125 17.628906 72.289062 18.25 72.164062 18.660156 C 71.832031 19.484375 71.171875 20.925781 70.714844 22.128906 C 70.550781 22.578125 70.46875 23.277344 70.222656 23.816406 C 69.890625 24.636719 69.476562 25.464844 69.1875 26.242188 C 69.105469 26.410156 69.144531 26.695312 69.0625 26.902344 C 68.933594 27.261719 68.835938 27.632812 68.773438 28.011719 C 68.730469 28.058594 68.648438 28.21875 68.566406 28.261719 C 67.820312 30.445312 67.160156 33.164062 66.25 35.628906 C 65.835938 36.824219 65.132812 38.429688 64.59375 40.078125 C 64.347656 40.820312 64.058594 42.054688 63.890625 42.675781 C 63.574219 43.742188 63.023438 44.8125 63.023438 46.296875 C 62.980469 46.777344 62.980469 47.257812 63.023438 47.738281 C 63.0625 47.941406 63.3125 48.105469 63.394531 48.273438 C 63.726562 49.054688 64.34375 49.507812 64.976562 49.425781 C 65.515625 49.34375 66.425781 48.4375 66.46875 48.3125 C 66.507812 47.984375 66.785156 47.613281 66.839844 47.203125 C 66.960938 45.925781 66.878906 45.1875 67.292969 43.703125 C 67.292969 43.660156 67.167969 43.496094 67.210938 43.332031 C 67.5 42.386719 67.871094 41.125 68.203125 40.121094 C 68.226562 39.996094 68.210938 39.867188 68.160156 39.75 C 68.367188 39.339844 68.492188 38.84375 68.699219 38.347656 C 68.699219 38.265625 68.617188 38.144531 68.660156 38.0625 C 68.90625 37.03125 69.523438 35.34375 69.816406 33.777344 C 69.859375 33.613281 70.105469 33.367188 70.105469 33.242188 C 70.394531 32.042969 70.753906 30.863281 71.179688 29.703125 C 71.34375 29.332031 71.429688 28.511719 71.59375 28.011719 C 71.96875 26.945312 72.460938 25.832031 72.753906 24.800781 C 72.875 24.515625 72.917969 23.980469 73.070312 23.566406 C 73.367188 22.851562 73.632812 22.125 73.859375 21.382812 C 74.144531 20.398438 74.558594 19.53125 74.808594 18.546875 C 74.851562 18.546875 74.929688 18.464844 75.015625 18.382812 C 75.40625 18.625 75.710938 18.984375 75.882812 19.410156 C 75.925781 19.535156 75.800781 19.949219 76.007812 20.152344 C 76.503906 20.78125 76.339844 21.414062 76.460938 22.292969 C 76.542969 22.992188 76.421875 24.066406 76.460938 24.816406 C 76.460938 25.0625 76.753906 25.390625 76.832031 25.640625 C 76.878906 25.925781 76.867188 26.222656 76.792969 26.503906 C 76.792969 26.667969 76.917969 26.789062 76.957031 26.917969 C 76.964844 27.355469 76.882812 27.789062 76.710938 28.191406 C 76.710938 28.273438 76.667969 28.441406 76.710938 28.507812 C 76.824219 28.964844 76.90625 29.433594 76.957031 29.902344 C 77 30.234375 76.917969 30.726562 76.917969 31.136719 C 76.964844 31.21875 77.007812 31.300781 77.042969 31.386719 C 76.667969 32.960938 77.207031 34.1875 77.539062 35.339844 C 77.578125 35.503906 77.953125 35.753906 78.035156 35.917969 C 78.257812 36.359375 78.550781 36.761719 78.902344 37.109375 C 79.144531 37.039062 79.398438 37.023438 79.644531 37.070312 C 79.9375 36.949219 79.894531 36.65625 79.9375 36.492188 C 80.019531 36.039062 80.597656 35.214844 80.597656 35.054688 C 80.597656 34.894531 80.390625 34.394531 80.433594 34.066406 C 80.515625 32.828125 80.390625 31.507812 80.390625 30.484375 C 80.390625 30.402344 80.308594 30.355469 80.308594 30.167969 C 80.308594 30.042969 80.679688 28.277344 80.808594 27.363281 C 80.890625 26.707031 81.011719 25.636719 81.125 24.976562 C 81.371094 23.824219 81.621094 22.339844 81.824219 21.066406 C 81.902344 20.671875 81.914062 20.269531 81.867188 19.871094 C 81.992188 19.417969 82.242188 18.84375 82.363281 18.386719 C 82.46875 17.644531 82.621094 16.910156 82.824219 16.1875 C 83.027344 15.695312 83.027344 14.925781 83.191406 14.214844 C 83.234375 14.046875 83.484375 13.304688 83.609375 13.015625 C 83.8125 12.480469 84.1875 11.863281 84.433594 11.332031 C 84.472656 11.179688 84.5 11.027344 84.519531 10.875 C 84.601562 10.683594 84.929688 10.3125 84.972656 10.023438 Z M 80.132812 20.566406 C 79.96875 20.6875 79.84375 20.9375 79.675781 20.9375 L 79.722656 20.621094 C 79.851562 20.476562 80.003906 20.351562 80.175781 20.25 Z M 80.132812 20.566406 "/>
<path style=" stroke:none;fill-rule:nonzero;fill:rgb(26.666667%,26.666667%,26.666667%);fill-opacity:1;" d="M 87.785156 48.636719 C 87.742188 48.550781 87.578125 48.511719 87.496094 48.386719 C 87.414062 48.261719 87.496094 47.972656 87.410156 47.808594 C 87.246094 47.398438 87.09375 46.984375 86.875 46.574219 L 87.042969 46.246094 C 86.914062 45.816406 86.75 45.402344 86.542969 45.007812 C 86.460938 44.695312 86.421875 44.226562 86.339844 43.855469 C 86.246094 43.785156 86.164062 43.703125 86.089844 43.609375 C 85.84375 42.914062 85.664062 42.195312 85.550781 41.46875 C 85.476562 41.019531 85.460938 40.5625 85.507812 40.109375 C 85.507812 40.109375 85.46875 40.109375 85.386719 40.027344 C 85.46875 39.742188 85.386719 39.121094 85.054688 38.917969 C 85.097656 38.894531 85.140625 38.867188 85.175781 38.835938 C 85.21875 38.671875 85.21875 38.503906 85.175781 38.339844 L 85.257812 38.257812 C 85.28125 38.046875 85.28125 37.835938 85.257812 37.628906 C 85.21875 37.628906 85.175781 37.503906 85.136719 37.421875 C 85.089844 37.09375 85.105469 36.757812 85.175781 36.433594 C 85.164062 36.03125 85.109375 35.632812 85.015625 35.238281 L 84.640625 35.195312 L 84.558594 36.269531 C 84.558594 36.433594 84.765625 38.738281 84.765625 39.976562 C 84.601562 40.382812 84.683594 41.003906 84.726562 41.550781 C 84.726562 41.800781 84.683594 42.207031 84.683594 42.496094 C 84.640625 42.578125 84.558594 42.617188 84.519531 42.703125 C 84.765625 42.742188 84.558594 43.152344 84.683594 43.402344 C 84.726562 43.566406 84.890625 43.6875 84.929688 43.933594 C 85.054688 44.390625 84.847656 45.214844 84.890625 45.789062 C 84.890625 46.035156 85.207031 46.859375 85.304688 47.367188 C 85.425781 48.070312 85.675781 48.886719 85.800781 49.671875 C 85.796875 50.015625 85.808594 50.359375 85.839844 50.703125 C 85.503906 51.429688 85.730469 52.289062 86.378906 52.757812 C 86.460938 52.757812 86.792969 52.640625 86.917969 52.640625 C 87.042969 52.640625 87.082031 52.757812 87.234375 52.71875 C 87.386719 52.679688 87.691406 52.269531 87.773438 52.019531 C 87.875 51.765625 87.960938 51.503906 88.023438 51.238281 C 88 50.992188 87.898438 50.761719 87.730469 50.578125 C 87.980469 50.125 88.023438 50.25 88.0625 49.949219 C 88.105469 49.648438 87.9375 49.632812 87.730469 49.210938 C 87.824219 49.097656 87.785156 48.851562 87.785156 48.636719 Z M 87.785156 48.636719 "/>
<path style=" stroke:none;fill-rule:nonzero;fill:rgb(26.666667%,26.666667%,26.666667%);fill-opacity:1;" d="M 84.929688 34.894531 L 85.136719 34.6875 C 85.054688 34.644531 85.015625 34.480469 84.890625 34.402344 C 84.847656 34.277344 85.015625 34.03125 85.09375 33.820312 C 85.175781 33.738281 85.054688 33.453125 85.054688 33.289062 L 85.054688 32.050781 C 85.03125 32.007812 85.003906 31.964844 84.972656 31.929688 C 84.984375 31.609375 85.039062 31.289062 85.136719 30.984375 C 85.199219 30.699219 85.199219 30.402344 85.136719 30.117188 C 85.089844 29.816406 85.0625 29.515625 85.054688 29.210938 C 85.09375 28.800781 85.257812 28.347656 85.257812 27.949219 C 85.171875 27.585938 85.128906 27.210938 85.136719 26.835938 C 85.175781 26.464844 85.425781 25.972656 85.34375 25.644531 C 85.304688 25.480469 85.09375 25.5625 85.09375 25.355469 C 85.09375 25.144531 85.304688 25.066406 85.304688 24.941406 C 85.34375 24.625 85.507812 24.242188 85.507812 24.035156 C 85.472656 23.691406 85.417969 23.347656 85.34375 23.007812 C 85.46875 22.636719 85.757812 22.308594 85.425781 21.894531 C 85.511719 21.574219 85.554688 21.242188 85.550781 20.910156 C 85.523438 20.605469 85.539062 20.300781 85.59375 20 C 85.4375 20.089844 85.308594 20.21875 85.21875 20.371094 C 85.21875 21.003906 85.054688 21.632812 85.054688 22.261719 C 85.015625 22.46875 85.21875 22.714844 85.136719 22.960938 C 84.984375 23.394531 84.859375 23.832031 84.765625 24.277344 C 84.785156 24.578125 84.855469 24.871094 84.972656 25.144531 C 84.890625 25.597656 84.804688 26.050781 84.726562 26.460938 C 84.726562 26.5625 84.753906 26.660156 84.804688 26.75 C 84.804688 27.863281 84.601562 29.304688 84.640625 30.371094 C 84.652344 30.800781 84.625 31.226562 84.558594 31.652344 C 84.601562 31.691406 84.601562 31.773438 84.640625 31.855469 C 84.601562 32.679688 84.519531 33.625 84.476562 34.375 C 84.476562 34.5 84.558594 34.664062 84.558594 34.789062 C 84.6875 34.8125 84.8125 34.847656 84.929688 34.894531 Z M 84.929688 34.894531 "/>
<path style=" stroke:none;fill-rule:nonzero;fill:rgb(26.666667%,26.666667%,26.666667%);fill-opacity:1;" d="M 93.820312 26.898438 C 91.585938 28.335938 91.335938 28.214844 89.972656 30.519531 C 89.476562 31.34375 89.144531 30.519531 88.9375 32.699219 C 88.773438 34.472656 88.148438 36.117188 89.476562 37.5625 C 89.761719 37.890625 90.257812 38.011719 90.839844 37.972656 C 91.488281 37.839844 92.0625 37.472656 92.453125 36.945312 C 92.910156 36.3125 93.363281 36.078125 93.652344 35.210938 C 94.601562 32.578125 95.347656 31.589844 95.308594 28.789062 C 95.308594 28.015625 94.523438 26.453125 93.820312 26.898438 Z M 92.535156 34.554688 C 92.160156 34.964844 92.21875 35.875 91.585938 35.667969 C 90.222656 35.171875 91.335938 33.648438 91.253906 32.289062 C 91.210938 31.054688 91.128906 30.027344 92.371094 30.230469 C 94.441406 30.613281 93.652344 33.199219 92.535156 34.566406 Z M 92.535156 34.554688 "/>
<path style=" stroke:none;fill-rule:nonzero;fill:rgb(26.666667%,26.666667%,26.666667%);fill-opacity:1;" d="M 101.832031 23.613281 C 102.554688 23.445312 103.214844 23.074219 103.730469 22.539062 C 104.3125 22.046875 103.566406 21.675781 103.316406 21.347656 L 103.195312 20.910156 C 102.230469 20.976562 101.367188 21.535156 100.925781 22.390625 C 100.714844 22.828125 101.210938 23.691406 101.832031 23.613281 Z M 101.832031 23.613281 "/>
<path style=" stroke:none;fill-rule:nonzero;fill:rgb(26.666667%,26.666667%,26.666667%);fill-opacity:1;" d="M 129.488281 35.59375 C 129.835938 35.183594 130.171875 34.765625 130.476562 34.332031 C 131.675781 33.5 132.195312 32.308594 133.074219 31.136719 C 133.527344 30.566406 133.65625 29.703125 134.066406 29.164062 C 134.234375 28.917969 134.234375 28.589844 134.648438 28.710938 C 134.828125 28.765625 134.964844 28.90625 135.019531 29.082031 C 135.433594 29.988281 135.183594 30.6875 134.9375 31.636719 C 134.917969 31.898438 134.804688 32.144531 134.621094 32.335938 C 134.457031 32.582031 134.578125 33.035156 134.457031 33.199219 C 133.957031 33.855469 134.042969 34.601562 133.75 35.382812 C 133.457031 36.164062 133.339844 37.402344 134.125 37.730469 C 134.824219 38.015625 135.449219 37.273438 135.984375 36.699219 C 136.152344 36.535156 135.941406 36.410156 135.820312 36.203125 C 134.824219 34.144531 136.726562 32.046875 137.226562 29.988281 L 137.144531 29.945312 L 137.226562 29.863281 C 137.476562 29.285156 137.480469 28.632812 137.238281 28.050781 C 137 27.46875 136.53125 27.007812 135.941406 26.773438 C 134.789062 26.28125 135.984375 25.128906 135.28125 24.921875 C 134.746094 24.800781 134.292969 25.460938 133.875 25.707031 C 133.460938 25.898438 133.164062 26.28125 133.089844 26.734375 C 133.007812 27.105469 133.421875 27.3125 133.464844 27.679688 C 133.542969 28.132812 133.339844 28.503906 133.089844 29.039062 C 132.578125 30.320312 131.941406 31.542969 131.191406 32.699219 L 131.164062 32.699219 C 131.078125 32.804688 131.007812 32.921875 130.957031 33.042969 C 130.648438 33.472656 130.316406 33.882812 129.953125 34.265625 C 129.871094 34.347656 129.871094 34.679688 129.992188 34.636719 L 130.042969 34.605469 C 129.726562 34.992188 129.316406 35.277344 128.847656 35.089844 C 128.140625 34.800781 128.214844 34.0625 128.105469 33.28125 C 127.894531 31.671875 128.269531 29.699219 128.519531 28.132812 C 128.519531 28.050781 128.476562 28.007812 128.476562 27.925781 C 128.476562 27.855469 128.464844 27.785156 128.433594 27.71875 C 128.433594 27.679688 128.433594 27.636719 128.390625 27.636719 C 128.023438 27.636719 127.8125 28.132812 127.273438 28.460938 C 126.558594 28.835938 126.011719 29.46875 125.742188 30.230469 C 125.457031 31.097656 125.246094 32.003906 124.628906 32.75 C 124.480469 33 124.355469 33.261719 124.257812 33.53125 C 124.089844 33.847656 123.882812 34.398438 123.308594 34.398438 C 122.359375 34.355469 122.230469 33.453125 122.230469 32.871094 C 122.25 32.597656 122.25 32.320312 122.230469 32.046875 C 122.230469 31.800781 122.066406 31.59375 122.109375 31.347656 C 122.148438 30.359375 122.441406 29.621094 122.523438 28.757812 L 122.359375 27.683594 C 122.066406 27.601562 121.816406 27.765625 121.488281 28.136719 C 121.066406 28.558594 120.625 28.957031 120.164062 29.332031 C 119.875 29.578125 120.082031 30.074219 119.957031 30.402344 C 119.757812 30.925781 119.523438 31.4375 119.253906 31.925781 C 119.046875 32.273438 118.824219 32.609375 118.578125 32.933594 C 118.15625 33.273438 117.410156 34.261719 116.859375 34.824219 C 116.074219 35.691406 114.832031 36.398438 113.925781 36.398438 C 113.097656 36.398438 113.386719 35.578125 113.425781 35.207031 C 113.839844 32.859375 114.625 30.347656 115.207031 27.878906 C 115.578125 26.1875 115.457031 26.269531 115.992188 24.585938 C 116.28125 23.554688 116.445312 23.59375 116.773438 22.605469 C 117.066406 21.703125 117.023438 21.496094 117.890625 21.03125 C 119.960938 19.960938 122.816406 21.484375 124.757812 20.042969 C 125.050781 19.878906 125.835938 19.835938 125.542969 19.753906 C 124.46875 19.4375 123.011719 19.917969 121.90625 19.835938 C 121.242188 19.796875 120.832031 19.835938 120.25 19.835938 C 119.667969 19.835938 118.554688 20 118.476562 19.382812 C 118.308594 18.4375 119.339844 16.625 119.425781 15.679688 C 119.46875 14.9375 118.347656 15.632812 117.808594 15.964844 C 116.378906 16.816406 117.40625 19.289062 116.140625 19.699219 C 114.941406 20.070312 113.78125 19.246094 112.621094 19.246094 C 111.792969 19.246094 111.464844 19.535156 110.925781 20.109375 C 110.859375 20.199219 110.832031 20.316406 110.855469 20.429688 C 110.878906 20.539062 110.949219 20.632812 111.050781 20.6875 C 112.335938 21.183594 113.945312 21.058594 115.390625 20.9375 C 115.515625 20.960938 115.617188 21.046875 115.660156 21.164062 C 115.703125 21.28125 115.679688 21.414062 115.601562 21.511719 C 115.558594 22.140625 115.0625 22.335938 114.941406 22.789062 C 114.730469 23.28125 114.566406 23.570312 114.359375 24.105469 C 114.109375 24.652344 113.820312 25.179688 113.492188 25.679688 C 113.207031 26.199219 112.988281 26.578125 112.796875 26.890625 C 112.023438 27.207031 111.738281 28.230469 111.324219 29.027344 C 111.171875 29.246094 111.007812 29.496094 110.804688 29.800781 L 110.546875 30.164062 C 110.070312 30.71875 109.535156 31.214844 108.945312 31.652344 C 108.742188 31.855469 108.410156 31.527344 108.367188 31.28125 C 108.304688 30.734375 108.304688 30.179688 108.367188 29.632812 C 108.449219 29.136719 108.28125 28.5625 108.324219 28.191406 C 108.515625 26.957031 109.304688 25.898438 110.4375 25.355469 C 111.136719 25.070312 111.878906 24.449219 111.839844 23.78125 C 111.71875 22.421875 110.105469 23.984375 109.273438 24.410156 C 107.289062 25.402344 106.742188 27.460938 106.007812 29.273438 C 105.140625 31.328125 103.773438 33.386719 101.625 34.585938 C 101.261719 34.847656 100.925781 35.144531 100.625 35.476562 C 100.589844 35.480469 100.550781 35.480469 100.515625 35.476562 C 100.101562 35.515625 99.851562 35.160156 99.882812 34.53125 L 99.882812 32.84375 C 99.882812 31.199219 100.710938 29.675781 101.085938 28.121094 L 100.875 27.746094 C 99.925781 27.957031 98.808594 28.652344 98.394531 29.519531 C 98.050781 30.144531 97.746094 30.789062 97.488281 31.453125 C 97.332031 31.890625 97.140625 32.3125 96.910156 32.714844 C 96.164062 34.03125 95.007812 34.734375 94.757812 35.546875 C 96.246094 34.917969 96.785156 33.945312 97.359375 34.519531 C 97.859375 35.011719 97.570312 36.621094 98.148438 36.949219 C 99.308594 37.582031 100.679688 36.414062 101.664062 35.546875 C 101.742188 35.480469 101.808594 35.402344 101.863281 35.316406 C 102.824219 34.660156 103.648438 33.828125 104.304688 32.871094 C 104.507812 32.582031 104.757812 32.257812 105.007812 31.964844 C 105.171875 31.761719 105.542969 31.59375 105.707031 31.964844 C 106.109375 32.777344 106.347656 33.660156 106.410156 34.5625 C 106.496094 35.796875 104.34375 36.042969 104.261719 37.320312 C 104.222656 38.105469 105.089844 38.0625 105.585938 38.105469 C 106.910156 38.183594 108.117188 37.03125 109.015625 35.960938 C 109.558594 35.332031 109.226562 34.476562 109.140625 33.738281 C 109.101562 33.078125 109.886719 32.707031 110.136719 32.160156 C 110.171875 32.085938 110.210938 32.011719 110.253906 31.9375 C 110.609375 31.515625 110.964844 31.070312 111.414062 30.554688 C 111.523438 30.40625 111.652344 30.195312 111.789062 29.964844 C 112 29.742188 112.210938 29.527344 112.421875 29.335938 C 112.695312 28.96875 112.890625 28.546875 112.996094 28.105469 C 113.242188 27.675781 113.457031 27.144531 113.863281 26.988281 C 113.742188 27.898438 113.53125 28.796875 113.230469 29.667969 C 112.660156 31.285156 112.175781 32.9375 111.78125 34.605469 C 111.535156 35.757812 110.792969 37.363281 111.910156 37.941406 C 112.445312 38.230469 113.355469 37.570312 113.851562 37.363281 C 114.964844 36.867188 115.957031 36.734375 116.828125 35.789062 C 117.375 35.179688 118.441406 34.078125 118.773438 33.363281 C 118.90625 33.222656 119.078125 33.121094 119.265625 33.070312 C 119.964844 32.945312 119.964844 33.769531 119.964844 34.097656 C 119.953125 34.363281 119.980469 34.625 120.050781 34.878906 C 120.367188 35.746094 120.628906 36.527344 121.457031 36.570312 C 122.066406 36.570312 122.660156 36.347656 123.113281 35.9375 C 123.648438 35.527344 124.0625 34.703125 124.851562 34.539062 C 125.550781 34.414062 125.800781 35.195312 125.964844 35.652344 C 126.089844 35.96875 126.171875 36.515625 126.542969 36.679688 C 126.707031 36.71875 126.917969 36.800781 127.078125 36.84375 C 127.164062 36.886719 127.164062 36.765625 127.371094 36.71875 C 128.207031 36.703125 128.824219 36.375 129.488281 35.59375 Z M 129.488281 35.59375 "/>
<path style=" stroke:none;fill-rule:nonzero;fill:rgb(26.666667%,26.666667%,26.666667%);fill-opacity:1;" d="M 144.441406 32.503906 C 143.203125 32.21875 142.957031 35.183594 141.507812 35.222656 C 140.972656 35.222656 140.390625 35.101562 140.226562 34.566406 C 140.101562 34.113281 139.855469 33.367188 140.308594 32.992188 C 142.085938 31.589844 144.402344 29.738281 144.277344 27.269531 C 144.238281 26.640625 143.453125 26.238281 142.789062 26.640625 C 141.550781 27.503906 140.441406 28.527344 139.480469 29.6875 C 138.570312 30.800781 138.242188 31.125 137.867188 32.28125 C 137.742188 32.597656 137.910156 33.023438 137.867188 33.347656 C 137.742188 34.667969 138.035156 35.824219 138.738281 36.6875 C 139.191406 37.261719 140.269531 36.808594 140.972656 36.5625 C 141.539062 36.28125 142.058594 35.90625 142.5 35.449219 C 143.371094 34.730469 145.683594 32.796875 144.441406 32.503906 Z M 140.886719 29.871094 C 141.09375 29.375 141.21875 28.554688 142.003906 28.71875 L 142.125 29.347656 C 141.839844 30.210938 141.757812 31.695312 140.679688 31.65625 C 140.019531 31.640625 140.640625 30.40625 140.886719 29.871094 Z M 140.886719 29.871094 "/>
<path style=" stroke:none;fill-rule:nonzero;fill:rgb(26.666667%,26.666667%,26.666667%);fill-opacity:1;" d="M 147.8125 26.175781 C 146.640625 26.175781 145.773438 26.984375 145.773438 27.980469 C 145.773438 28.976562 146.640625 29.785156 147.8125 29.785156 C 148.984375 29.785156 149.851562 28.976562 149.851562 27.980469 C 149.851562 26.984375 148.984375 26.175781 147.8125 26.175781 Z M 147.8125 29.585938 C 146.9375 29.535156 146.261719 28.796875 146.292969 27.921875 C 146.324219 27.046875 147.054688 26.359375 147.933594 26.375 C 148.808594 26.386719 149.515625 27.101562 149.519531 27.976562 C 149.511719 28.414062 149.328125 28.835938 149.007812 29.136719 C 148.6875 29.441406 148.253906 29.601562 147.8125 29.585938 Z M 147.8125 29.585938 "/>
<path style=" stroke:none;fill-rule:nonzero;fill:rgb(26.666667%,26.666667%,26.666667%);fill-opacity:1;" d="M 148.792969 28.863281 C 148.542969 28.628906 148.332031 28.359375 148.160156 28.0625 C 148.136719 28.042969 148.128906 28.015625 148.136719 27.988281 C 148.367188 27.921875 148.535156 27.726562 148.5625 27.488281 C 148.5625 27.03125 148.113281 26.964844 147.761719 26.964844 C 147.410156 26.964844 147.199219 26.964844 146.882812 26.984375 C 146.867188 26.996094 146.855469 27.011719 146.855469 27.03125 C 146.855469 27.050781 146.867188 27.066406 146.882812 27.078125 L 146.972656 27.078125 C 147.175781 27.097656 147.175781 27.148438 147.175781 27.472656 L 147.175781 28.472656 C 147.175781 28.789062 147.175781 28.855469 146.972656 28.886719 L 146.882812 28.886719 C 146.867188 28.898438 146.859375 28.914062 146.859375 28.933594 C 146.859375 28.953125 146.867188 28.972656 146.882812 28.984375 C 147.027344 28.984375 147.175781 28.984375 147.347656 28.984375 C 147.523438 28.984375 147.664062 28.984375 147.808594 28.984375 C 147.828125 28.972656 147.839844 28.953125 147.839844 28.933594 C 147.839844 28.914062 147.828125 28.894531 147.808594 28.886719 L 147.691406 28.886719 C 147.519531 28.871094 147.492188 28.808594 147.492188 28.472656 L 147.492188 28.179688 C 147.492188 28.121094 147.492188 28.109375 147.640625 28.109375 C 147.707031 28.101562 147.773438 28.121094 147.820312 28.171875 C 147.929688 28.308594 148.058594 28.527344 148.136719 28.632812 C 148.269531 28.875 148.53125 29.023438 148.808594 29.015625 C 148.871094 29.015625 148.929688 29.007812 148.988281 29 C 149.003906 28.980469 149.003906 28.953125 148.988281 28.9375 C 148.914062 28.933594 148.847656 28.910156 148.792969 28.863281 Z M 147.726562 27.972656 C 147.523438 27.972656 147.496094 27.972656 147.496094 27.863281 L 147.496094 27.230469 C 147.496094 27.136719 147.496094 27.113281 147.707031 27.113281 C 147.828125 27.101562 147.949219 27.140625 148.039062 27.21875 C 148.132812 27.300781 148.183594 27.414062 148.191406 27.535156 C 148.199219 27.65625 148.152344 27.777344 148.0625 27.863281 C 147.972656 27.949219 147.847656 27.988281 147.726562 27.972656 Z M 147.726562 27.972656 "/>
</g>
</svg>
